<svg width="268" height="68" viewBox="0 0 268 68" fill="none" xmlns="http://www.w3.org/2000/svg">
<g clip-path="url(#clip0_269_4752)">
<path d="M0.365973 1.88726C0.365491 1.75611 0.391082 1.62616 0.441281 1.50485C0.49148 1.38355 0.565297 1.27328 0.658496 1.18037C0.751699 1.08747 0.862451 1.01375 0.984398 0.963452C1.10635 0.91315 1.23709 0.887259 1.36914 0.887259H16.4753C19.5072 0.867889 22.4231 2.04388 24.5831 4.15723C26.7432 6.27057 27.971 9.14864 27.9971 12.16C27.9971 16.9891 24.7715 20.9236 20.1767 22.76L27.4223 36.1054C27.5209 36.2596 27.5749 36.4378 27.5781 36.6204C27.5813 36.8033 27.5338 36.9829 27.4407 37.1407C27.3476 37.2982 27.2125 37.4269 27.0503 37.5131C26.8882 37.5993 26.7052 37.6396 26.5216 37.6291H20.9749C20.8032 37.6382 20.6326 37.5985 20.4828 37.5149C20.333 37.4313 20.2103 37.3069 20.1291 37.1564L13.1033 23.2473H7.24537V36.6327C7.23691 36.8974 7.12601 37.1487 6.93577 37.3342C6.7455 37.52 6.49053 37.6255 6.22389 37.6291H1.36914C1.10309 37.6291 0.847927 37.524 0.659796 37.3371C0.471665 37.1505 0.365973 36.8971 0.365973 36.6327V1.88726ZM15.9004 17.6327C18.7013 17.6327 21.1323 15.2182 21.1323 12.28C21.099 10.922 20.5337 9.63043 19.5568 8.67977C18.5798 7.72915 17.2681 7.19435 15.9004 7.18908H7.2893V17.6327H15.9004Z" fill="#0245EE"/>
<path d="M37.4102 1.88727C37.4102 1.62205 37.5163 1.3677 37.7049 1.18016C37.8938 0.992624 38.1501 0.887268 38.417 0.887268H59.9229C60.0551 0.887268 60.1858 0.913159 60.3077 0.963457C60.4296 1.01376 60.5402 1.08748 60.6335 1.18038C60.7269 1.27329 60.8005 1.38356 60.8506 1.50486C60.9008 1.62617 60.9264 1.75612 60.9261 1.88727V6.18181C60.9264 6.31298 60.9008 6.4429 60.8506 6.56421C60.8005 6.68552 60.7269 6.79581 60.6335 6.88869C60.5402 6.98159 60.4296 7.05534 60.3077 7.10563C60.1858 7.15592 60.0551 7.18181 59.9229 7.18181H44.3005V15.7964H57.3344C57.598 15.8045 57.8481 15.9122 58.0344 16.0973C58.2212 16.2824 58.3292 16.5311 58.3376 16.7927V21.1564C58.3376 21.4206 58.2318 21.674 58.0436 21.8609C57.8558 22.0477 57.6006 22.1527 57.3344 22.1527H44.3005V31.3309H59.9412C60.2074 31.3309 60.4625 31.4359 60.6504 31.6227C60.8386 31.8096 60.9444 32.063 60.9444 32.3273V36.6327C60.9444 36.8971 60.8386 37.1505 60.6504 37.3371C60.4625 37.524 60.2074 37.6291 59.9412 37.6291H38.417C38.1505 37.6291 37.8949 37.5244 37.7063 37.3374C37.5178 37.1509 37.4113 36.8974 37.4102 36.6327V1.88727Z" fill="#0245EE"/>
<path d="M70.4929 1.88727C70.4926 1.75612 70.5182 1.62617 70.5683 1.50486C70.6185 1.38356 70.6921 1.27329 70.7855 1.18038C70.8788 1.08748 70.9894 1.01376 71.1113 0.963457C71.2332 0.913159 71.3639 0.887268 71.4961 0.887268H76.3582C76.6221 0.896323 76.8733 1.00458 77.06 1.1902C77.2467 1.37581 77.3558 1.62493 77.365 1.88727V31.3418H90.8382C91.1044 31.3418 91.3596 31.4468 91.5474 31.6336C91.7356 31.8205 91.8414 32.0739 91.8414 32.3382V36.6327C91.8414 36.8971 91.7356 37.1505 91.5474 37.3371C91.3596 37.524 91.1044 37.6291 90.8382 37.6291H71.4961C71.3643 37.6291 71.234 37.6033 71.112 37.5531C70.9905 37.5033 70.8799 37.4298 70.7869 37.3371C70.6936 37.2447 70.6196 37.1349 70.5694 37.0142C70.5189 36.8931 70.4929 36.7636 70.4929 36.6327V1.88727Z" fill="#0245EE"/>
<path d="M99.8704 1.88727C99.87 1.75612 99.8956 1.62617 99.9458 1.50486C99.9959 1.38356 100.07 1.27329 100.163 1.18038C100.256 1.08748 100.367 1.01376 100.489 0.963457C100.611 0.913159 100.741 0.887268 100.874 0.887268H122.379C122.646 0.888232 122.901 0.994014 123.089 1.18145C123.277 1.36888 123.383 1.62268 123.383 1.88727V6.18181C123.383 6.44701 123.276 6.70138 123.088 6.8889C122.899 7.07647 122.643 7.18181 122.376 7.18181H106.739V15.7964H119.791C120.055 15.8036 120.306 15.9109 120.494 16.0961C120.681 16.2813 120.789 16.5305 120.798 16.7927V21.1564C120.797 21.4209 120.69 21.6744 120.502 21.8611C120.313 22.0479 120.058 22.1527 119.791 22.1527H106.739V31.3309H122.379C122.645 31.3318 122.9 31.4372 123.088 31.6238C123.276 31.8104 123.382 32.0633 123.383 32.3273V36.6327C123.382 36.8974 123.275 37.1509 123.086 37.3374C122.898 37.5244 122.642 37.6291 122.376 37.6291H100.874C100.607 37.6291 100.352 37.524 100.164 37.3371C99.9762 37.1505 99.8704 36.8971 99.8704 36.6327V1.88727Z" fill="#0245EE"/>
<path d="M130.339 2.25456C130.258 2.10736 130.219 1.94117 130.226 1.77369C130.233 1.6062 130.285 1.44369 130.378 1.30342C130.47 1.16315 130.599 1.05039 130.751 0.977109C130.902 0.903836 131.072 0.872796 131.24 0.887291H136.625C136.813 0.886022 136.998 0.938923 137.156 1.03959C137.315 1.14027 137.441 1.2844 137.519 1.45456L147.664 24.0364H148.03L158.164 1.45456C158.241 1.2815 158.367 1.13458 158.527 1.03186C158.688 0.929134 158.874 0.875098 159.065 0.876382H164.454C164.622 0.862603 164.79 0.894171 164.942 0.967742C165.093 1.04131 165.221 1.15414 165.313 1.29428C165.405 1.43442 165.457 1.59665 165.464 1.76378C165.47 1.93092 165.432 2.09673 165.351 2.24365L148.971 37.5637C148.897 37.7386 148.772 37.8873 148.612 37.9902C148.452 38.0935 148.265 38.1462 148.074 38.1418H147.547C147.356 38.1469 147.168 38.0942 147.008 37.9909C146.848 37.8877 146.723 37.7389 146.65 37.5637L130.339 2.25456Z" fill="#0245EE"/>
<path d="M204.317 1.30908C204.328 1.05313 204.439 0.811544 204.627 0.635195C204.814 0.458846 205.062 0.361489 205.32 0.363621H206.642L228.609 23.56H228.664V1.88726C228.664 1.75611 228.689 1.62616 228.74 1.50485C228.79 1.38354 228.863 1.27328 228.957 1.18037C229.05 1.08746 229.161 1.01375 229.283 0.96345C229.404 0.913148 229.535 0.887257 229.667 0.887257H234.529C234.793 0.896363 235.043 1.00475 235.23 1.19045C235.416 1.37614 235.524 1.62525 235.533 1.88726V37.2109C235.521 37.4665 235.41 37.7076 235.223 37.8836C235.036 38.0593 234.787 38.1556 234.529 38.1527H233.259L211.186 14.0618H211.134V36.6327C211.134 36.7636 211.108 36.8931 211.058 37.0142C211.008 37.1349 210.934 37.2447 210.841 37.3371C210.747 37.4298 210.637 37.5033 210.515 37.5531C210.393 37.6033 210.263 37.6291 210.131 37.6291H205.32C205.057 37.62 204.807 37.512 204.621 37.3273C204.435 37.1422 204.326 36.8942 204.317 36.6327V1.30908Z" fill="#0245EE"/>
<path d="M251.719 7.18909H243.635C243.502 7.18909 243.371 7.16298 243.248 7.11221C243.126 7.06145 243.015 6.98709 242.922 6.89341C242.828 6.79974 242.755 6.68861 242.705 6.56647C242.655 6.44432 242.63 6.31356 242.632 6.18181V1.88727C242.631 1.75612 242.657 1.62617 242.707 1.50486C242.757 1.38356 242.831 1.27329 242.924 1.18038C243.018 1.08748 243.128 1.01376 243.25 0.963457C243.372 0.913159 243.503 0.887268 243.635 0.887268H266.726C266.993 0.887268 267.249 0.992624 267.438 1.18016C267.627 1.3677 267.733 1.62205 267.733 1.88727V6.18181C267.733 6.44701 267.627 6.70138 267.438 6.8889C267.249 7.07647 266.993 7.18181 266.726 7.18181H258.642V36.6364C258.633 36.8978 258.524 37.1458 258.338 37.3309C258.152 37.5156 257.902 37.6236 257.639 37.6327H252.722C252.459 37.6236 252.209 37.5156 252.023 37.3309C251.837 37.1458 251.728 36.8978 251.719 36.6364V7.18909Z" fill="#0245EE"/>
<path d="M197.496 36.2655L181.23 0.941825C181.162 0.760694 181.037 0.606345 180.873 0.502054C180.709 0.397763 180.516 0.349186 180.322 0.363643H179.794C179.604 0.358711 179.416 0.411316 179.255 0.51453C179.095 0.617741 178.971 0.766719 178.897 0.941825L162.462 36.2655C162.383 36.4124 162.344 36.5778 162.352 36.7444C162.359 36.9109 162.411 37.0724 162.503 37.212C162.595 37.3516 162.723 37.464 162.873 37.5375C163.024 37.6109 163.192 37.6426 163.359 37.6291H167.958C168.292 37.636 168.62 37.5386 168.896 37.3498C169.171 37.1611 169.38 36.8913 169.492 36.5782L179.849 13.5382H180.007L190.47 36.5782C190.837 37.3055 191.203 37.6291 192.001 37.6291H196.607C196.773 37.6411 196.94 37.6084 197.09 37.5342C197.24 37.4604 197.366 37.3476 197.458 37.2084C197.548 37.0691 197.6 36.908 197.607 36.7422C197.613 36.5764 197.575 36.4116 197.496 36.2655Z" fill="#ED2D24"/>
<path d="M1.4133 63.6364L7.47626 54.7346V63.6364H8.61855V53.0982H7.49823L1.45724 61.8691V53.0982H0.314941V63.6364H1.4133Z" fill="black"/>
<path d="M16.6154 63.6364V58.6837H22.6345V63.6364H23.7768V53.0982H22.6345V57.68H16.6154V53.0982H15.4731V63.6364H16.6154Z" fill="black"/>
<path d="M33.707 63.6364V54.1018H36.8484V53.0982H29.4453V54.1018H32.5647V63.6364H33.707Z" fill="black"/>
<path d="M47.2084 63.8982C48.9658 63.8982 50.3058 63.2873 51.3602 62.1964L50.7671 61.4545C49.8664 62.4145 48.6363 62.9164 47.2963 62.9164C44.792 62.9164 43.2543 61.0182 43.1445 58.7273H52.0192V58.4218C52.0192 55.3891 50.2399 52.8364 47.0107 52.8364C44.0671 52.8364 41.8923 55.3018 41.8923 58.3564C41.8923 61.6073 44.111 63.8982 47.2084 63.8982ZM50.855 57.8327H43.1445C43.2323 56 44.4845 53.8182 46.9887 53.8182C49.6468 53.8182 50.833 56.0436 50.855 57.8327Z" fill="black"/>
<path d="M63.0991 63.8982C65.9329 63.8982 67.8441 61.7164 67.8441 58.3564C67.8441 54.9745 65.9329 52.8364 63.0991 52.8364C61.5175 52.8364 60.1555 53.6873 59.4087 54.7564V53.0982H58.2664V67.6509H59.4087V61.9345C60.2654 63.1345 61.6054 63.8982 63.0991 63.8982ZM62.9014 62.8727C61.4296 62.8727 60.0237 61.9564 59.4087 60.9527V55.7382C60.0237 54.7345 61.4296 53.8618 62.9014 53.8618C65.2739 53.8618 66.6139 55.8036 66.6139 58.3564C66.6139 60.9091 65.2739 62.8727 62.9014 62.8727Z" fill="black"/>
<path d="M75.1674 63.6364V58.6837H81.1865V63.6364H82.3288V53.0982H81.1865V57.68H75.1674V53.0982H74.0251V63.6364H75.1674Z" fill="black"/>
<path d="M93.8842 63.8982C95.6416 63.8982 96.9816 63.2873 98.036 62.1964L97.4429 61.4545C96.5422 62.4145 95.3121 62.9164 93.9721 62.9164C91.4678 62.9164 89.9301 61.0182 89.8202 58.7273H98.695V58.4218C98.695 55.3891 96.9157 52.8364 93.6865 52.8364C90.7429 52.8364 88.5681 55.3018 88.5681 58.3564C88.5681 61.6073 90.7868 63.8982 93.8842 63.8982ZM97.5307 57.8327H89.8202C89.9081 56 91.1602 53.8182 93.6645 53.8182C96.3225 53.8182 97.5088 56.0436 97.5307 57.8327Z" fill="black"/>
<path d="M108.018 63.6364V54.1018H111.159V53.0982H103.756V54.1018H106.875V63.6364H108.018Z" fill="black"/>
<path d="M129.95 58.88V57.8327H124.678V58.88H129.95Z" fill="black"/>
<path d="M152.546 63.6364V56.2182C152.546 53.8618 150.832 52.8364 148.679 52.8364C146.922 52.8364 145.692 53.4255 144.593 54.6036L145.23 55.3891C146.197 54.2982 147.229 53.84 148.547 53.84C150.129 53.84 151.403 54.6909 151.403 56.2618V58.4C150.481 57.3745 149.272 56.8945 147.801 56.8945C145.955 56.8945 144.088 58.0945 144.088 60.3855C144.088 62.6545 145.977 63.8982 147.801 63.8982C149.272 63.8982 150.459 63.4182 151.403 62.3927V63.6364H152.546ZM148.196 63.0036C146.439 63.0036 145.296 61.8909 145.296 60.4073C145.296 58.9018 146.439 57.7891 148.196 57.7891C149.47 57.7891 150.656 58.2909 151.403 59.2509V61.5636C150.656 62.5236 149.47 63.0036 148.196 63.0036Z" fill="black"/>
<path d="M166.374 53.0982H159.41V63.6364H160.552V54.1018H166.374V53.0982Z" fill="black"/>
<path d="M176.738 63.8982C178.495 63.8982 179.835 63.2873 180.89 62.1964L180.296 61.4545C179.396 62.4145 178.166 62.9164 176.826 62.9164C174.321 62.9164 172.784 61.0182 172.674 58.7273H181.549V58.4218C181.549 55.3891 179.769 52.8364 176.54 52.8364C173.596 52.8364 171.422 55.3018 171.422 58.3564C171.422 61.6073 173.64 63.8982 176.738 63.8982ZM180.384 57.8327H172.674C172.762 56 174.014 53.8182 176.518 53.8182C179.176 53.8182 180.362 56.0436 180.384 57.8327Z" fill="black"/>
<path d="M188.938 63.6364V58.6837H194.957V63.6364H196.099V53.0982H194.957V57.68H188.938V53.0982H187.796V63.6364H188.938Z" fill="black"/>
<path d="M206.029 63.6364V54.1018H209.171V53.0982H201.768V54.1018H204.887V63.6364H206.029Z" fill="black"/>
<path d="M219.377 63.8982C221.222 63.8982 222.277 63.1782 223.134 62.0873L222.343 61.3891C221.574 62.4364 220.607 62.8727 219.443 62.8727C216.961 62.8727 215.445 60.8873 215.445 58.3564C215.445 55.8255 216.961 53.8618 219.443 53.8618C220.607 53.8618 221.574 54.2764 222.343 55.3236L223.134 54.6255C222.277 53.5564 221.222 52.8364 219.377 52.8364C216.258 52.8364 214.215 55.28 214.215 58.3564C214.215 61.4327 216.258 63.8982 219.377 63.8982Z" fill="black"/>
<path d="M232.055 63.6364V54.1018H235.196V53.0982H227.793V54.1018H230.913V63.6364H232.055Z" fill="black"/>
<path d="M246.392 63.6364C248.237 63.6364 249.379 62.5455 249.379 60.7782C249.379 59.6 248.544 58.4873 247.49 58.2037C248.369 57.9418 249.182 57.0691 249.182 55.8037C249.182 54.1237 248.039 53.0982 246.304 53.0982H240.856V63.6364H246.392ZM246.15 62.6109H241.998V58.7055H246.15C247.49 58.7055 248.171 59.6873 248.171 60.6909C248.171 61.8909 247.424 62.6109 246.15 62.6109ZM246.106 57.7018H241.998V54.1018H246.106C247.314 54.1018 247.995 54.8218 247.995 55.9127C247.995 56.9164 247.336 57.7018 246.106 57.7018Z" fill="black"/>
<path d="M260.517 63.8982C263.658 63.8982 265.635 61.4327 265.635 58.3564C265.635 55.28 263.658 52.8364 260.517 52.8364C257.42 52.8364 255.421 55.28 255.421 58.3564C255.421 61.4327 257.42 63.8982 260.517 63.8982ZM260.517 62.8727C258.057 62.8727 256.651 60.7127 256.651 58.3564C256.651 56.0218 258.057 53.8618 260.517 53.8618C263.021 53.8618 264.405 56.0218 264.405 58.3564C264.405 60.7127 263.021 62.8727 260.517 62.8727Z" fill="black"/>
</g>
<defs>
<clipPath id="clip0_269_4752">
<rect width="268" height="68" fill="white"/>
</clipPath>
</defs>
</svg>
