<svg width="228" height="58" viewBox="0 0 228 58" fill="none" xmlns="http://www.w3.org/2000/svg">
<g clip-path="url(#clip0_269_4634)">
<path d="M0.244635 1.54229C0.244224 1.4297 0.266018 1.31813 0.308768 1.21399C0.351519 1.10985 0.414384 1.01519 0.493755 0.935431C0.57313 0.855672 0.667449 0.792387 0.771303 0.749207C0.87516 0.706023 0.986506 0.683796 1.09896 0.683796H13.9638C16.5459 0.667166 19.0291 1.67675 20.8687 3.49103C22.7082 5.30532 23.7538 7.77612 23.7761 10.3613C23.7761 14.5071 21.0291 17.8848 17.116 19.4613L23.2865 30.9183C23.3706 31.0506 23.4165 31.2036 23.4192 31.3604C23.422 31.5174 23.3815 31.6716 23.3022 31.8071C23.2229 31.9423 23.1079 32.0528 22.9698 32.1268C22.8317 32.2007 22.6759 32.2354 22.5195 32.2263H17.7958C17.6496 32.2341 17.5042 32.2001 17.3767 32.1283C17.2491 32.0565 17.1446 31.9497 17.0755 31.8205L11.0921 19.8797H6.10332V31.371C6.09612 31.5982 6.00168 31.814 5.83966 31.9732C5.67762 32.1327 5.46049 32.2232 5.2334 32.2263H1.09896C0.872382 32.2263 0.65508 32.1361 0.494862 31.9757C0.334645 31.8155 0.244635 31.5979 0.244635 31.371V1.54229ZM13.4742 15.0596C15.8595 15.0596 17.9298 12.9868 17.9298 10.4644C17.9014 9.29853 17.4201 8.18973 16.5881 7.3736C15.7561 6.5575 14.639 6.09838 13.4742 6.09386H6.14074V15.0596H13.4742Z" fill="white"/>
<path d="M31.7932 1.54209C31.7932 1.3144 31.8836 1.09604 32.0442 0.935041C32.2051 0.774041 32.4234 0.683594 32.6507 0.683594H50.9657C51.0783 0.683594 51.1896 0.705821 51.2934 0.749001C51.3972 0.792185 51.4914 0.85547 51.5709 0.935228C51.6504 1.01499 51.7131 1.10965 51.7558 1.21379C51.7985 1.31793 51.8203 1.42949 51.82 1.54209V5.22892C51.8203 5.34152 51.7985 5.45306 51.7558 5.5572C51.7131 5.66135 51.6504 5.75603 51.5709 5.83576C51.4914 5.91552 51.3972 5.97883 51.2934 6.02201C51.1896 6.06518 51.0783 6.08741 50.9657 6.08741H37.6613V13.4829H48.7613C48.9858 13.4899 49.1987 13.5824 49.3574 13.7413C49.5165 13.9002 49.6084 14.1137 49.6156 14.3383V18.0844C49.6156 18.3113 49.5255 18.5289 49.3652 18.6893C49.2053 18.8497 48.988 18.9398 48.7613 18.9398H37.6613V26.8192H50.9813C51.208 26.8192 51.4253 26.9093 51.5852 27.0697C51.7455 27.2301 51.8356 27.4477 51.8356 27.6746V31.3708C51.8356 31.5977 51.7455 31.8153 51.5852 31.9755C51.4253 32.1359 51.208 32.2261 50.9813 32.2261H32.6507C32.4237 32.2261 32.206 32.1362 32.0455 31.9758C31.8849 31.8156 31.7941 31.598 31.7932 31.3708V1.54209Z" fill="white"/>
<path d="M59.9673 1.54209C59.967 1.42949 59.9888 1.31793 60.0315 1.21379C60.0742 1.10965 60.1369 1.01499 60.2164 0.935228C60.2959 0.85547 60.3901 0.792185 60.4939 0.749001C60.5977 0.705821 60.7091 0.683594 60.8216 0.683594H64.9623C65.1871 0.691367 65.401 0.784309 65.56 0.943654C65.719 1.103 65.812 1.31687 65.8197 1.54209V26.8286H77.2939C77.5206 26.8286 77.7379 26.9187 77.8979 27.0791C78.0581 27.2395 78.1483 27.4571 78.1483 27.6839V31.3708C78.1483 31.5977 78.0581 31.8153 77.8979 31.9755C77.7379 32.1359 77.5206 32.2261 77.2939 32.2261H60.8216C60.7094 32.2261 60.5984 32.204 60.4945 32.1609C60.391 32.1181 60.2969 32.0551 60.2177 31.9755C60.1382 31.8962 60.0752 31.8019 60.0325 31.6982C59.9894 31.5943 59.9673 31.4831 59.9673 31.3708V1.54209Z" fill="white"/>
<path d="M84.9854 1.54209C84.985 1.42949 85.0069 1.31793 85.0496 1.21379C85.0923 1.10965 85.155 1.01499 85.2345 0.935228C85.314 0.85547 85.4082 0.792185 85.512 0.749001C85.6158 0.705821 85.7271 0.683594 85.8397 0.683594H104.155C104.382 0.684421 104.599 0.775234 104.759 0.936143C104.919 1.09705 105.009 1.31494 105.009 1.54209V5.22892C105.009 5.45659 104.919 5.67496 104.758 5.83595C104.597 5.99697 104.379 6.08741 104.152 6.08741H90.8347V13.4829H101.95C102.175 13.4892 102.389 13.5812 102.549 13.7402C102.708 13.8992 102.801 14.1131 102.808 14.3383V18.0844C102.807 18.3116 102.716 18.5291 102.556 18.6895C102.395 18.8498 102.177 18.9398 101.95 18.9398H90.8347V26.8192H104.155C104.381 26.82 104.598 26.9104 104.758 27.0706C104.918 27.2309 105.008 27.448 105.009 27.6746V31.3708C105.008 31.598 104.917 31.8156 104.757 31.9758C104.596 32.1362 104.379 32.2261 104.152 32.2261H85.8397C85.613 32.2261 85.3957 32.1359 85.2357 31.9755C85.0755 31.8153 84.9854 31.5977 84.9854 31.3708V1.54209Z" fill="white"/>
<path d="M110.933 1.85774C110.865 1.73136 110.831 1.5887 110.837 1.44491C110.843 1.30113 110.887 1.16161 110.966 1.04119C111.045 0.920771 111.155 0.823961 111.284 0.761054C111.413 0.69815 111.557 0.671503 111.7 0.683946H116.287C116.447 0.682857 116.604 0.728272 116.739 0.814696C116.874 0.901123 116.981 1.02486 117.047 1.17094L125.687 20.5572H125.999L134.63 1.17094C134.695 1.02237 134.803 0.89624 134.939 0.808056C135.076 0.719868 135.235 0.673479 135.397 0.674581H139.987C140.129 0.662752 140.273 0.689852 140.402 0.753012C140.531 0.816169 140.64 0.913035 140.718 1.03334C140.797 1.15365 140.841 1.29293 140.846 1.43641C140.852 1.57989 140.819 1.72224 140.75 1.84837L126.801 32.1703C126.738 32.3204 126.632 32.4481 126.495 32.5365C126.359 32.6251 126.199 32.6704 126.037 32.6667H125.588C125.425 32.671 125.265 32.6258 125.129 32.5371C124.992 32.4484 124.886 32.3208 124.824 32.1703L110.933 1.85774Z" fill="white"/>
<path d="M173.936 1.04607C173.945 0.826339 174.04 0.618943 174.199 0.467549C174.359 0.316155 174.57 0.232574 174.79 0.234404H175.916L194.624 20.1483H194.67V1.54243C194.67 1.42984 194.692 1.31828 194.735 1.21414C194.777 1.11 194.84 1.01534 194.92 0.935577C194.999 0.855818 195.093 0.792533 195.197 0.749353C195.301 0.706169 195.412 0.683942 195.525 0.683942H199.665C199.89 0.691759 200.103 0.784807 200.262 0.944227C200.421 1.10364 200.513 1.3175 200.52 1.54243V31.8675C200.51 32.0869 200.416 32.2939 200.256 32.445C200.097 32.5958 199.885 32.6785 199.665 32.676H198.583L179.785 11.9942H179.741V31.3711C179.741 31.4835 179.719 31.5946 179.676 31.6986C179.634 31.8022 179.571 31.8965 179.491 31.9758C179.412 32.0554 179.318 32.1185 179.214 32.1612C179.11 32.2043 178.999 32.2265 178.887 32.2265H174.79C174.566 32.2187 174.353 32.126 174.195 31.9674C174.036 31.8085 173.944 31.5956 173.936 31.3711V1.04607Z" fill="white"/>
<path d="M214.304 6.09365H207.42C207.307 6.09365 207.195 6.07124 207.09 6.02766C206.986 5.98408 206.892 5.92024 206.812 5.83982C206.733 5.7594 206.67 5.664 206.628 5.55914C206.585 5.45428 206.564 5.34202 206.565 5.22892V1.54209C206.565 1.42949 206.587 1.31793 206.629 1.21379C206.672 1.10965 206.735 1.01499 206.814 0.935228C206.894 0.85547 206.988 0.792185 207.092 0.749001C207.196 0.705821 207.307 0.683594 207.42 0.683594H227.085C227.312 0.683594 227.53 0.774041 227.691 0.935041C227.852 1.09604 227.942 1.3144 227.942 1.54209V5.22892C227.942 5.45659 227.852 5.67496 227.691 5.83595C227.53 5.99697 227.312 6.08741 227.085 6.08741H220.2V31.3739C220.192 31.5983 220.1 31.8112 219.941 31.9701C219.783 32.1287 219.57 32.2214 219.346 32.2293H215.158C214.934 32.2214 214.722 32.1287 214.563 31.9701C214.404 31.8112 214.312 31.5983 214.304 31.3739V6.09365Z" fill="white"/>
<path d="M168.127 31.056L154.274 0.730931C154.216 0.575431 154.109 0.442924 153.97 0.353391C153.83 0.263858 153.665 0.222155 153.5 0.234566H153.051C152.889 0.230332 152.729 0.275493 152.592 0.364102C152.456 0.452708 152.35 0.580604 152.287 0.730931L138.291 31.056C138.223 31.1821 138.19 31.3241 138.197 31.4671C138.202 31.6101 138.247 31.7487 138.325 31.8686C138.404 31.9884 138.512 32.0849 138.641 32.148C138.769 32.211 138.912 32.2382 139.055 32.2266H142.971C143.255 32.2326 143.535 32.1489 143.77 31.9869C144.004 31.8249 144.182 31.5932 144.277 31.3244L153.098 11.5448H153.232L162.143 31.3244C162.455 31.9488 162.767 32.2266 163.447 32.2266H167.369C167.511 32.2369 167.653 32.2088 167.781 32.1452C167.908 32.0818 168.016 31.985 168.094 31.8654C168.171 31.7459 168.215 31.6076 168.221 31.4652C168.226 31.3229 168.194 31.1815 168.127 31.056Z" fill="#ED2D24"/>
<path d="M1.13681 54.5538L6.3002 46.9116V54.5538H7.27301V45.5068H6.31891L1.17423 53.0366V45.5068H0.201416V54.5538H1.13681Z" fill="white"/>
<path d="M14.0832 54.5538V50.3019H19.2091V54.5538H20.1819V45.5068H19.2091V49.4403H14.0832V45.5068H13.1104V54.5538H14.0832Z" fill="white"/>
<path d="M28.6393 54.5538V46.3684H31.3147V45.5068H25.01V46.3684H27.6665V54.5538H28.6393Z" fill="white"/>
<path d="M40.1369 54.7787C41.6336 54.7787 42.7747 54.2542 43.6727 53.3177L43.1676 52.6809C42.4006 53.505 41.3529 53.9358 40.2118 53.9358C38.0791 53.9358 36.7695 52.3062 36.676 50.3395H44.234V50.0773C44.234 47.4737 42.7186 45.2822 39.9686 45.2822C37.4617 45.2822 35.6096 47.3988 35.6096 50.0211C35.6096 52.812 37.4991 54.7787 40.1369 54.7787ZM43.2424 49.5716H36.676C36.7508 47.9982 37.8172 46.1251 39.9499 46.1251C42.2135 46.1251 43.2237 48.0356 43.2424 49.5716Z" fill="white"/>
<path d="M53.6707 54.7787C56.084 54.7787 57.7116 52.9056 57.7116 50.0211C57.7116 47.1178 56.084 45.2822 53.6707 45.2822C52.3237 45.2822 51.1638 46.0127 50.5277 46.9305V45.507H49.5549V58.0004H50.5277V53.0929C51.2573 54.1231 52.3985 54.7787 53.6707 54.7787ZM53.5023 53.8984C52.2489 53.8984 51.0516 53.1117 50.5277 52.2501V47.7734C51.0516 46.9118 52.2489 46.1626 53.5023 46.1626C55.5228 46.1626 56.6639 47.8296 56.6639 50.0211C56.6639 52.2126 55.5228 53.8984 53.5023 53.8984Z" fill="white"/>
<path d="M63.9479 54.5538V50.3019H69.0739V54.5538H70.0467V45.5068H69.0739V49.4403H63.9479V45.5068H62.9751V54.5538H63.9479Z" fill="white"/>
<path d="M79.8874 54.7787C81.3841 54.7787 82.5252 54.2542 83.4232 53.3177L82.9181 52.6809C82.1511 53.505 81.1034 53.9358 79.9623 53.9358C77.8296 53.9358 76.52 52.3062 76.4265 50.3395H83.9845V50.0773C83.9845 47.4737 82.4691 45.2822 79.719 45.2822C77.2122 45.2822 75.3601 47.3988 75.3601 50.0211C75.3601 52.812 77.2496 54.7787 79.8874 54.7787ZM82.9929 49.5716H76.4265C76.5013 47.9982 77.5676 46.1251 79.7003 46.1251C81.964 46.1251 82.9742 48.0356 82.9929 49.5716Z" fill="white"/>
<path d="M91.9245 54.5538V46.3684H94.5997V45.5068H88.2952V46.3684H90.9517V54.5538H91.9245Z" fill="white"/>
<path d="M110.602 50.4704V49.5713H106.112V50.4704H110.602Z" fill="white"/>
<path d="M129.846 54.5539V48.1855C129.846 46.1626 128.387 45.2822 126.553 45.2822C125.057 45.2822 124.009 45.788 123.074 46.7994L123.616 47.4737C124.439 46.5372 125.319 46.1438 126.441 46.1438C127.788 46.1438 128.873 46.8743 128.873 48.2229V50.0586C128.087 49.1782 127.058 48.7661 125.805 48.7661C124.233 48.7661 122.643 49.7963 122.643 51.7631C122.643 53.7111 124.252 54.7787 125.805 54.7787C127.058 54.7787 128.069 54.3666 128.873 53.4863V54.5539H129.846ZM126.142 54.0107C124.645 54.0107 123.672 53.0555 123.672 51.7818C123.672 50.4894 124.645 49.5341 126.142 49.5341C127.227 49.5341 128.237 49.9649 128.873 50.7891V52.7745C128.237 53.5987 127.227 54.0107 126.142 54.0107Z" fill="white"/>
<path d="M141.621 45.5068H135.691V54.5538H136.664V46.3684H141.621V45.5068Z" fill="white"/>
<path d="M150.449 54.7787C151.945 54.7787 153.087 54.2542 153.984 53.3177L153.479 52.6809C152.712 53.505 151.665 53.9358 150.524 53.9358C148.391 53.9358 147.081 52.3062 146.988 50.3395H154.546V50.0773C154.546 47.4737 153.03 45.2822 150.28 45.2822C147.773 45.2822 145.921 47.3988 145.921 50.0211C145.921 52.812 147.811 54.7787 150.449 54.7787ZM153.554 49.5716H146.988C147.063 47.9982 148.129 46.1251 150.262 46.1251C152.525 46.1251 153.536 48.0356 153.554 49.5716Z" fill="white"/>
<path d="M160.838 54.5538V50.3019H165.964V54.5538H166.937V45.5068H165.964V49.4403H160.838V45.5068H159.865V54.5538H160.838Z" fill="white"/>
<path d="M175.393 54.5538V46.3684H178.068V45.5068H171.764V46.3684H174.42V54.5538H175.393Z" fill="white"/>
<path d="M186.761 54.7787C188.333 54.7787 189.231 54.1606 189.96 53.2241L189.287 52.6247C188.632 53.5237 187.809 53.8984 186.817 53.8984C184.703 53.8984 183.412 52.1939 183.412 50.0211C183.412 47.8483 184.703 46.1626 186.817 46.1626C187.809 46.1626 188.632 46.5185 189.287 47.4175L189.96 46.8181C189.231 45.9003 188.333 45.2822 186.761 45.2822C184.105 45.2822 182.365 47.3801 182.365 50.0211C182.365 52.6621 184.105 54.7787 186.761 54.7787Z" fill="white"/>
<path d="M197.558 54.5538V46.3684H200.233V45.5068H193.929V46.3684H196.586V54.5538H197.558Z" fill="white"/>
<path d="M209.768 54.5538C211.339 54.5538 212.312 53.6172 212.312 52.1C212.312 51.0886 211.601 50.1333 210.703 49.8898C211.451 49.6651 212.144 48.9158 212.144 47.8294C212.144 46.3872 211.171 45.5068 209.693 45.5068H205.053V54.5538H209.768ZM209.562 53.6734H206.026V50.3206H209.562C210.703 50.3206 211.283 51.1635 211.283 52.0251C211.283 53.0553 210.647 53.6734 209.562 53.6734ZM209.524 49.459H206.026V46.3684H209.524C210.553 46.3684 211.133 46.9866 211.133 47.9231C211.133 48.7847 210.572 49.459 209.524 49.459Z" fill="white"/>
<path d="M221.797 54.7787C224.472 54.7787 226.156 52.6621 226.156 50.0211C226.156 47.3801 224.472 45.2822 221.797 45.2822C219.159 45.2822 217.457 47.3801 217.457 50.0211C217.457 52.6621 219.159 54.7787 221.797 54.7787ZM221.797 53.8984C219.702 53.8984 218.505 52.044 218.505 50.0211C218.505 48.0169 219.702 46.1626 221.797 46.1626C223.93 46.1626 225.109 48.0169 225.109 50.0211C225.109 52.044 223.93 53.8984 221.797 53.8984Z" fill="white"/>
</g>
<defs>
<clipPath id="clip0_269_4634">
<rect width="228" height="58" fill="white"/>
</clipPath>
</defs>
</svg>
