<svg width="28" height="28" viewBox="0 0 28 28" fill="none" xmlns="http://www.w3.org/2000/svg">
<path d="M1.85936 4.24356C1.6953 4.2873 1.5367 4.34746 1.50389 4.38027C1.44373 4.44043 13.3219 16.3568 13.5734 16.4936C13.7648 16.592 14.2351 16.592 14.4265 16.4936C14.6781 16.3568 26.5562 4.44043 26.4961 4.38027C26.4633 4.34746 26.2937 4.2873 26.1133 4.24356C25.8234 4.16699 24.4836 4.15605 13.9726 4.16152C3.74061 4.16152 2.12186 4.17246 1.85936 4.24356Z" fill="white"/>
<path d="M0.125781 5.8625C0.0328125 6.13594 0.0273438 6.53516 0.0273438 14C0.0273438 21.4648 0.0328125 21.8641 0.125781 22.132C0.180469 22.2906 0.246094 22.4219 0.2625 22.4219C0.284375 22.4219 2.19844 20.5242 4.51172 18.2109L8.72266 14L4.51172 9.78906C2.19844 7.47031 0.284375 5.57812 0.2625 5.57812C0.246094 5.57812 0.180469 5.70938 0.125781 5.8625Z" fill="white"/>
<path d="M23.4883 9.78906L19.2773 14L23.4883 18.2109C25.8016 20.5242 27.7156 22.4219 27.7375 22.4219C27.7539 22.4219 27.8195 22.2906 27.8742 22.132C27.9672 21.8641 27.9727 21.4648 27.9727 14C27.9727 6.53516 27.9672 6.13594 27.8742 5.8625C27.8195 5.70938 27.7539 5.57812 27.7375 5.57812C27.7156 5.57812 25.8016 7.47031 23.4883 9.78906Z" fill="white"/>
<path d="M5.63287 19.3867C2.92584 22.0938 1.47115 23.5867 1.50396 23.6195C1.53677 23.6523 1.7063 23.7125 1.88677 23.7563C2.17662 23.8328 3.52193 23.8438 14.0001 23.8438C24.4782 23.8438 25.8235 23.8328 26.1133 23.7563C26.2938 23.7125 26.4633 23.6523 26.4961 23.6195C26.529 23.5867 25.0743 22.0938 22.3563 19.3758L18.1618 15.1813L16.8602 16.4664C15.668 17.6477 15.5204 17.7734 15.1266 17.9703L14.6891 18.1836H14.0001H13.311L12.8735 17.9703C12.4797 17.7734 12.3266 17.6422 11.1508 16.4773C10.4454 15.7773 9.85474 15.2031 9.83834 15.2031C9.8274 15.2031 7.93521 17.0844 5.63287 19.3867Z" fill="white"/>
</svg>
