<svg width="175" height="111" viewBox="0 0 175 111" fill="none" xmlns="http://www.w3.org/2000/svg">
<g clip-path="url(#clip0_501_1056)">
<path d="M138.889 99.4374C138.342 99.2327 138.038 98.8701 137.934 98.3118C137.72 97.1513 138.356 96.6716 141.134 95.8982C141.621 95.7744 141.979 95.629 141.916 95.5954C141.866 95.5706 141.155 95.3963 140.339 95.2074C138.343 94.7608 134.301 93.594 132.446 92.9289C119.151 88.184 108.703 79.7319 102.123 68.4373C100.134 65.0234 98.4712 61.2321 97.8728 58.7275C97.5989 57.612 97.5916 57.5114 97.769 57.1843C98.1553 56.4564 98.9919 56.1434 99.7276 56.4491C100.255 56.6687 100.423 56.9659 100.876 58.3767C102.688 64.144 106.46 70.4666 111.084 75.5223C115.324 80.1508 120.762 84.2184 126.653 87.1835C131.471 89.6108 137.59 91.6621 143.379 92.7893C144.317 92.9669 144.352 92.9718 144.244 92.754C144.176 92.6308 143.26 91.3508 142.192 89.9178C141.135 88.4829 140.202 87.172 140.126 87.005C139.702 85.9964 140.868 84.7734 141.96 85.104C142.475 85.2579 142.619 85.4238 144.828 88.4349C147.957 92.691 148.928 94.5156 148.549 95.4686C148.218 96.3109 146.157 97.4726 143.514 98.3004C142.722 98.5485 141.546 98.9242 140.894 99.1351C139.409 99.6132 139.354 99.6233 138.889 99.4374Z" fill="#5B79F3"/>
</g>
<path d="M13.9623 52.5204C14.1879 52.4351 14.5218 52.3829 14.9639 52.3638C15.406 52.3448 15.7314 52.3073 15.9401 52.2514C16.8384 52.3585 17.5312 52.5331 18.0185 52.7753C18.4995 52.9942 18.7976 53.4113 18.9128 54.0265C18.9285 54.2707 18.9722 54.6193 19.0439 55.0722C19.1387 55.5188 19.1338 55.9177 19.0291 56.2688C19.0494 56.4372 19.0343 56.7519 18.9838 57.2126C18.9334 57.6734 18.9036 57.9795 18.8945 58.131C18.7245 59.4438 18.6552 60.3444 18.6867 60.8329C18.6884 60.9318 18.6592 61.1011 18.5992 61.3408C18.5624 61.5743 18.5626 61.7606 18.5999 61.8997C18.6852 62.1253 18.7164 62.4275 18.6937 62.8063C18.6941 63.1789 18.6466 63.465 18.551 63.6645C18.4152 63.8997 18.2314 64.0483 17.9996 64.1104C17.675 64.1974 17.3542 64.1591 17.0371 63.9956C16.7369 63.8027 16.5581 63.5525 16.5005 63.2449C16.3514 62.6885 16.2346 61.9744 16.1501 61.1026C16.2689 60.8968 16.315 60.6981 16.2885 60.5065C16.2558 60.2916 16.2417 60.1463 16.2462 60.0706C16.3766 59.166 16.4526 58.1517 16.4745 57.0278C16.5195 55.8976 16.4675 55.0544 16.3184 54.498C16.2749 54.3357 16.2323 54.2229 16.1905 54.1596C15.6341 54.3087 14.8784 54.5484 13.9234 54.8788C12.9684 55.2093 12.4329 55.39 12.317 55.4211C12.2305 55.4691 12.1649 55.5488 12.1202 55.6602C12.0692 55.7484 12.0531 55.8272 12.0717 55.8968C12.1061 56.2106 12.1004 56.56 12.0544 56.945C12.0085 57.33 11.9779 57.5866 11.9626 57.715C11.8521 58.4154 11.8073 59.0362 11.828 59.5773C11.867 59.8153 11.8097 60.3897 11.6562 61.3005C11.4448 62.9224 11.3865 63.9568 11.4813 64.4034C11.3534 64.7607 11.3586 65.2438 11.497 65.8528C11.5235 66.0444 11.4765 66.1937 11.356 66.3005C11.2356 66.4073 10.9992 66.5452 10.6469 66.7141C10.4784 66.7344 10.3091 66.7053 10.139 66.6266C9.96882 66.548 9.80716 66.4546 9.65397 66.3466C9.50079 66.2386 9.33602 66.1336 9.15966 66.0318C9.06027 65.6609 9.02771 64.9367 9.06198 63.8591C9.09625 62.7815 9.17339 62.003 9.2934 61.5236C9.2416 60.8666 9.27548 60.1121 9.39504 59.2602C9.4149 59.0561 9.45067 58.5868 9.50235 57.8524C9.51343 56.781 9.54171 55.8666 9.58719 55.109C9.62401 54.8755 9.62917 54.6629 9.60266 54.4712C9.59933 54.2734 9.61153 54.1334 9.63926 54.0515C9.69017 53.9633 9.82449 53.8155 10.0422 53.6081C10.3747 53.6432 10.6452 53.6329 10.8538 53.5769C11.0393 53.5273 11.2092 53.4196 11.3636 53.254C11.4269 53.2122 11.5197 53.1873 11.6418 53.1795C11.7809 53.1422 11.9316 53.1018 12.0939 53.0583L12.8936 52.844C13.45 52.695 13.8062 52.5871 13.9623 52.5204ZM23.4839 72.4802C23.2984 72.5299 23.1198 72.4659 22.9479 72.2883C22.7886 72.1571 22.6778 71.9756 22.6157 71.7438C22.5722 71.5815 22.5246 71.1719 22.4728 70.5149C22.4669 69.4729 22.4142 68.7665 22.3148 68.3955C22.2838 68.2796 22.2604 68.0996 22.2446 67.8553C22.2351 67.6343 22.2171 67.4279 22.1906 67.2362C22.2398 67.0491 22.2526 66.7723 22.229 66.406C22.2347 66.0566 22.2035 65.7544 22.1351 65.4994C22.1041 65.3835 22.1016 65.2351 22.1276 65.0541C22.1831 64.8902 22.2564 64.7463 22.3474 64.6226C22.3102 64.4835 22.289 64.2655 22.284 63.9687C22.2728 63.6487 22.2633 63.4276 22.2554 63.3055C22.2036 62.6485 22.2581 61.0437 22.4189 58.4911C22.5798 55.9385 22.7458 53.869 22.917 52.2827C23.0168 51.6348 23.0593 51.0519 23.0448 50.534C23.0303 50.0161 22.9857 49.6181 22.9112 49.3399C22.8864 49.2472 22.8878 49.1598 22.9155 49.0778C22.9602 48.9665 23.0335 48.8226 23.1353 48.6463C23.2541 48.4405 23.383 48.319 23.5221 48.2817C23.638 48.2507 23.778 48.2629 23.9419 48.3183C24.1059 48.3738 24.2729 48.4408 24.4431 48.5195C24.6381 48.6908 24.7952 48.8599 24.9144 49.0268C25.0568 49.1874 25.156 49.372 25.2119 49.5806C25.2305 49.6502 25.2664 49.8766 25.3194 50.26C25.4498 50.7468 25.4542 51.1804 25.3325 51.5609C25.2046 51.9182 25.1608 52.079 25.2009 52.0434C26.1137 51.277 26.9758 50.7852 27.7871 50.5677C28.7608 50.3069 29.5981 50.4179 30.299 50.901C31.0231 51.3778 31.5187 52.1147 31.7858 53.1115C31.8976 53.5288 31.9067 54.073 31.8132 54.744C31.7367 55.3857 31.6105 55.8419 31.4345 56.1127C31.2955 56.1499 31.1752 56.443 31.0738 56.992C30.8719 57.4437 30.479 57.9713 29.8954 58.5749C29.3055 59.1554 28.8591 59.4365 28.556 59.4183C28.5328 59.4245 28.5012 59.4454 28.461 59.481C28.4209 59.5167 28.4132 59.5808 28.4381 59.6735C28.4629 59.7663 28.1154 60.0457 27.3955 60.5119C26.6757 60.9781 26.0607 61.2796 25.5507 61.4162C25.2725 61.4908 25.0608 61.5351 24.9155 61.5492C24.764 61.5401 24.6031 61.4962 24.433 61.4176C24.3142 61.6233 24.2734 61.7957 24.3107 61.9348C24.379 62.1898 24.3873 62.6845 24.3357 63.4189C24.284 64.1533 24.1886 64.5392 24.0495 64.5765C24.0325 64.6058 24.0102 64.6615 23.9824 64.7435C23.9779 64.8193 24.0344 64.8911 24.152 64.959C24.1706 65.0285 24.2025 65.1939 24.2477 65.4551C24.2928 65.7163 24.2876 65.9289 24.2322 66.0928C24.2881 66.3015 24.3279 66.589 24.3515 66.9554C24.3813 67.3449 24.3747 67.6448 24.3317 67.8551C24.4062 68.1333 24.4313 68.4123 24.4069 68.6922C24.4119 68.989 24.368 69.1498 24.2753 69.1747C24.1486 69.2583 24.1692 69.6131 24.3369 70.239C24.469 70.8248 24.4742 71.3079 24.3525 71.6884C24.2308 72.0688 24.0309 72.2963 23.7527 72.3709L23.4839 72.4802ZM24.8483 59.6291C25.196 59.536 25.8449 59.1758 26.7949 58.5485C27.7619 57.8918 28.4074 57.3337 28.7315 56.8742C29.1066 56.3265 29.3826 55.7804 29.5598 55.236C29.7307 54.6684 29.7509 54.1412 29.6205 53.6544C29.5211 53.2835 29.3267 52.9753 29.0373 52.7298C28.8067 52.5183 28.4944 52.4654 28.1003 52.571C27.6366 52.6952 27.1237 53.0065 26.5616 53.505C26.0226 53.9973 25.558 54.5815 25.1677 55.2575C24.8622 55.7866 24.6528 56.4887 24.5394 57.3639C24.4199 58.2159 24.4191 58.8621 24.5371 59.3025C24.6055 59.5575 24.7092 59.6664 24.8483 59.6291ZM44.1162 58.4915C43.417 58.1073 42.7885 57.431 42.2308 56.4623C42.1472 56.3356 42.0588 56.0984 41.9656 55.7507C41.8724 55.403 41.8072 55.1595 41.7699 55.0205C41.724 55.4055 41.5529 55.7867 41.2565 56.1643C40.8662 56.8404 40.4386 57.3773 39.9737 57.7752C39.3052 58.5258 38.7159 58.9694 38.2059 59.1061C37.7423 59.2303 37.2335 59.0934 36.6796 58.6952C36.3099 58.5209 36.0097 58.328 35.7791 58.1165C35.5717 57.8988 35.4183 57.6044 35.3189 57.2335C35.2506 56.9785 35.2108 56.691 35.1996 56.371C35.0161 55.5008 34.9115 54.6468 34.8858 53.8089C34.8832 52.9648 34.9955 51.8539 35.2227 50.4762C35.5732 48.8169 35.8455 47.7004 36.0396 47.1266C36.1431 47.0492 36.2876 46.9856 36.473 46.9359C36.7048 46.8738 36.9089 46.8937 37.0853 46.9955C37.2848 47.0911 37.4273 47.2517 37.5126 47.4773C37.607 47.5514 37.6759 47.6696 37.7194 47.8319C37.8747 48.4114 37.7816 49.4551 37.4402 50.9628C37.12 53.3842 37.0717 55.0122 37.2953 55.8467C37.4258 56.3336 37.6425 56.5861 37.9455 56.6042C38.0801 56.6427 38.2169 56.6433 38.356 56.6061C38.9356 56.4508 39.5254 55.8703 40.1256 54.8647C40.7258 53.8591 41.1639 52.3876 41.4398 50.4502C41.5532 49.575 41.5328 48.7108 41.3787 47.8576C41.3369 47.7943 41.2974 47.6931 41.2601 47.554C41.1483 47.1367 41.2669 46.7447 41.6158 46.3779C41.6713 46.2139 41.7708 46.0754 41.9145 45.9624C42.0519 45.8262 42.1562 45.7982 42.2274 45.8785L42.7745 45.6947C42.8378 45.6529 42.926 45.7038 43.039 45.8474C43.1458 45.9679 43.2402 46.042 43.3222 46.0697C43.5218 46.1653 43.6712 46.3986 43.7706 46.7695C43.9756 47.5345 43.9531 48.7953 43.7032 50.5518C43.5112 51.5971 43.4024 52.3965 43.3768 52.95C43.3682 53.4741 43.4144 53.9711 43.5154 54.4409C43.7515 55.3219 44.2833 55.962 45.1109 56.3615C45.3862 56.4616 45.5718 56.5982 45.6679 56.7712C45.764 56.9443 45.8439 57.1962 45.9077 57.5269C45.9172 57.748 45.8247 57.9591 45.6301 58.1604C45.4526 58.3322 45.2363 58.4522 44.9813 58.5206C44.6799 58.6013 44.3916 58.5916 44.1162 58.4915ZM52.3821 55.9412C52.0699 56.0745 51.8327 56.1629 51.6705 56.2064C50.8127 56.4363 50.0342 56.3591 49.335 55.975C48.6357 55.5909 48.1588 54.9236 47.9041 53.9731C47.5381 52.978 47.4198 51.6555 47.5492 50.0058C47.7018 48.3499 48.0587 46.9001 48.62 45.6565C49.0194 44.8289 49.3718 44.1506 49.6773 43.6215C49.9828 43.0924 50.2908 42.7117 50.6012 42.4794C51.0321 42.1403 51.549 41.89 52.1517 41.7285C52.5938 41.7095 53.0461 41.7746 53.5085 41.924C53.9941 42.0672 54.2711 42.2663 54.3394 42.5213L54.5599 42.6486C54.699 42.6113 54.8731 42.751 55.0822 43.0677C55.285 43.3612 55.4393 43.705 55.5449 44.0991C55.6318 44.4237 55.6484 44.7174 55.5946 44.9803C55.6199 45.4456 55.5601 45.8715 55.4153 46.2582C55.2936 46.6387 55.1284 46.8569 54.9198 46.9128C54.6648 46.9811 54.5559 47.0848 54.5932 47.2239C54.618 47.3166 54.5841 47.3754 54.4914 47.4003C54.3755 47.4313 54.2177 47.399 54.0182 47.3034C53.8186 47.2078 53.6593 47.0766 53.54 46.9098C53.5214 46.8402 53.5149 46.6308 53.5207 46.2814C53.5265 45.932 53.5229 45.5478 53.5101 45.1288C53.5051 44.832 53.4746 44.5793 53.4187 44.3706C53.2945 43.907 53.0585 43.7218 52.7108 43.8149C52.5253 43.8646 52.3523 43.9607 52.1917 44.1031C51.401 44.8616 50.7955 45.8935 50.375 47.1988C49.9545 48.5041 49.7617 50.1956 49.7967 52.2734C49.8174 52.8144 49.8682 53.2357 49.9489 53.537C50.011 53.7689 50.0723 53.9512 50.1328 54.0841C50.2164 54.2108 50.2845 54.2795 50.3371 54.2902C50.4654 54.3055 50.715 54.2635 51.086 54.1641C51.9437 53.9343 52.5185 53.6685 52.8103 53.3666C53.4465 52.7738 54.1266 52.0201 54.8506 51.1055C54.9247 51.0111 55.0327 50.858 55.1747 50.646C55.3105 50.4108 55.4502 50.2367 55.5938 50.1237C55.6878 49.8252 55.7981 49.6342 55.9248 49.5505C56.0452 49.4437 56.2561 49.3499 56.5575 49.2692C56.8837 49.2812 57.1613 49.3434 57.3902 49.456C57.613 49.5454 57.644 49.6613 57.4834 49.8038C57.4139 49.8224 57.3737 49.858 57.3629 49.9106C57.3522 49.9631 57.3499 50.001 57.3561 50.0242C57.4335 50.1277 57.3257 50.4672 57.0327 51.0426C56.7396 51.6181 56.394 52.1828 55.9958 52.7367C55.5914 53.2675 55.2965 53.5577 55.111 53.6074C55.0183 53.6322 54.9403 53.6656 54.8769 53.7074C54.8136 53.7492 54.7943 53.8165 54.8192 53.9092C54.844 54.0019 54.5437 54.3184 53.9182 54.8587C53.3097 55.3696 52.7977 55.7305 52.3821 55.9412ZM63.3147 52.8627C63.0365 52.9373 62.8039 52.9499 62.6167 52.9007C62.4296 52.8514 62.1512 52.7397 61.7815 52.5654C60.7991 51.959 60.2178 51.3197 60.0377 50.6474C59.9942 50.4851 59.9747 50.3661 59.9793 50.2904C60.0053 50.1095 59.985 49.941 59.9184 49.7849C59.8749 49.6226 59.8469 49.5183 59.8345 49.4719C59.7169 49.4041 59.655 49.3585 59.6488 49.3353C59.6364 49.289 59.6503 49.248 59.6904 49.2124C59.7244 49.1536 59.7467 49.0979 59.7575 49.0453C59.8966 49.0081 59.9088 48.8681 59.7941 48.6256C59.698 48.4525 59.682 48.022 59.7461 47.334C59.804 46.6227 59.9354 45.9539 60.1403 45.3276C60.2835 44.842 60.5146 44.221 60.8337 43.4646C61.176 42.702 61.5008 42.1057 61.8079 41.6755C62.2338 41.0396 62.636 40.5468 63.0143 40.1969C63.3926 39.8471 63.8329 39.5428 64.335 39.284C64.7676 39.0438 65.065 38.902 65.2273 38.8585C65.3896 38.8151 65.5411 38.8241 65.6819 38.8858C65.8396 38.9181 66.0507 39.0106 66.3153 39.1633C67.0157 39.2738 67.5409 39.5182 67.8907 39.8966C68.2575 40.2455 68.5621 40.872 68.8043 41.7762C69.2081 43.283 69.0317 45.082 68.2751 47.173C67.9469 48.0809 67.6069 48.8056 67.255 49.3471C66.897 49.8654 66.3976 50.4589 65.7568 51.1275C65.3632 51.6057 64.9794 51.9819 64.6056 52.2559C64.2488 52.5006 63.8185 52.7029 63.3147 52.8627ZM65.6653 48.2823C66.0539 47.5073 66.336 46.7981 66.5115 46.1548C66.7101 45.5052 66.8452 44.7112 66.9168 43.7727C66.9271 43.3476 66.8577 42.8568 66.7086 42.3004C66.5223 41.605 66.3239 41.2357 66.1136 41.1927C65.8507 41.1389 65.6034 41.143 65.3716 41.2052C64.8616 41.3418 64.3905 41.7165 63.9584 42.3292C63.4414 43.0889 63.0312 43.9691 62.7278 44.9697C62.4183 45.9471 62.153 47.1363 61.932 48.5372C61.8307 49.0861 61.8421 49.5924 61.9663 50.0561C62.0595 50.4038 62.2152 50.6603 62.4334 50.8254C62.6747 50.9844 62.9461 51.0235 63.2475 50.9427C64.0125 50.7377 64.8184 49.8509 65.6653 48.2823ZM79.108 47.8855C78.6651 48.5508 78.038 48.9922 77.2266 49.2096C76.6471 49.3649 76.0534 49.3749 75.4457 49.2395C74.8612 49.098 74.3298 48.8304 73.8516 48.4368C73.4509 48.1466 73.1188 47.7883 72.8555 47.362C72.5922 46.9356 72.3704 46.3863 72.1903 45.714C72.1282 45.4822 72.0271 45.0123 71.8871 44.3044C71.7269 43.428 71.7659 42.461 72.0043 41.4032C72.2658 40.3393 72.6712 39.3486 73.2205 38.4312C73.7635 37.4906 74.3571 36.7849 75.0012 36.3142C75.31 35.983 75.6151 35.777 75.9165 35.6962C76.0787 35.6527 76.2441 35.6209 76.4126 35.6006C76.5811 35.5803 76.7612 35.5568 76.9529 35.5303C77.4815 35.4632 77.892 35.4651 78.1842 35.5358C78.4935 35.5772 78.775 35.7005 79.0288 35.9058C79.7636 36.3301 80.2335 36.9247 80.4385 37.6898C80.4949 38.271 80.3064 39.0048 79.873 39.8911C79.4397 40.7775 78.8415 41.5589 78.0786 42.2354C77.6986 42.4863 77.242 42.6832 76.7088 42.8261C75.9902 43.0187 75.3702 43.0233 74.849 42.8399C74.6217 42.8263 74.4502 42.835 74.3342 42.866C74.1256 42.9219 74.0006 43.1045 73.9592 43.4138C73.941 43.7168 73.985 44.2517 74.091 45.0183C74.1113 45.1868 74.1618 45.4217 74.2426 45.7231C74.5594 46.9054 75.1274 47.4489 75.9467 47.3536C76.5109 47.3267 76.9089 47.2821 77.1408 47.22C77.419 47.1455 77.7071 46.9689 78.0051 46.6903L78.5633 46.1307C78.6838 46.0239 78.7864 45.897 78.8713 45.75C78.9561 45.6031 79.0325 45.4708 79.1004 45.3532C79.1343 45.2944 79.1852 45.2063 79.2531 45.0887C79.3148 44.9479 79.3773 44.8566 79.4406 44.8148C79.5209 44.7436 79.5959 44.6987 79.6654 44.68C79.7581 44.6552 79.878 44.6852 80.0249 44.7701C80.1657 44.8317 80.2771 44.8764 80.359 44.9042C80.5677 44.8483 80.6544 44.9865 80.6193 45.3189C80.5779 45.6282 80.413 46.0327 80.1245 46.5324C79.8529 47.0027 79.5141 47.4537 79.108 47.8855ZM77.098 40.5229C77.4486 40.255 77.765 39.8596 78.0473 39.3368C78.3528 38.8077 78.4683 38.404 78.3937 38.1259C78.3192 37.8477 78.1527 37.6438 77.8944 37.5142C77.6361 37.3847 77.3214 37.3696 76.9505 37.469C76.6723 37.5435 76.4699 37.6226 76.3432 37.7063C76.0435 37.8859 75.7294 38.2434 75.4007 38.7787C75.0658 39.2909 74.792 39.799 74.5793 40.3033C74.3666 40.8075 74.3043 41.0851 74.3925 41.136C74.5643 41.3136 75.0443 41.2968 75.8325 41.0856C76.3657 40.9427 76.7875 40.7552 77.098 40.5229ZM82.9617 24.3419C83.4005 24.1249 83.7242 23.9885 83.9329 23.9326C84.327 23.827 84.6996 23.8265 85.0506 23.9312C86.3091 23.9916 87.3445 24.2856 88.1568 24.8134C88.969 25.3411 89.6184 26.0492 90.1049 26.9375C90.6146 27.8197 91.0852 28.9732 91.5167 30.3981C91.5958 30.6005 91.6819 30.8756 91.7751 31.2233C91.8558 31.5247 91.9639 32.0672 92.0994 32.8508C92.01 33.0736 91.9909 33.3271 92.0423 33.6115C92.0936 33.8959 92.1255 34.0613 92.138 34.1077C92.2622 34.5713 92.3059 34.9199 92.2691 35.1534C92.3266 35.4609 92.3209 35.8103 92.2518 36.2016C92.1827 36.5928 92.1668 36.8579 92.204 36.997C92.0411 39.0781 91.524 41.0429 90.6527 42.8914C89.7815 44.7398 88.6506 46.0367 87.2601 46.782C87.1566 46.8594 86.8304 46.8475 86.2815 46.7461C85.7263 46.6215 85.2987 46.4628 84.9985 46.2699C84.6922 46.0538 84.4384 45.8485 84.2372 45.654C84.0591 45.4532 83.9297 45.2021 83.849 44.9008C83.6229 44.6135 83.4432 44.3138 83.3099 44.0017C83.1936 43.6601 83.0639 43.2228 82.9211 42.6896C82.7906 42.2028 82.756 41.7027 82.8172 41.1893C82.8785 40.676 82.9844 40.0513 83.135 39.3152C83.1884 38.6798 83.4626 37.8485 83.9576 36.8214C84.4696 35.7649 85.0785 34.9308 85.7843 34.3193C86.3402 33.7977 86.85 33.4747 87.3136 33.3505C87.5918 33.276 87.8708 33.2509 88.1507 33.2753C88.4475 33.2703 88.6872 33.3303 88.8698 33.4553C89.0461 33.5571 89.1753 33.6219 89.2573 33.6496C89.393 33.4145 89.4435 32.9537 89.4087 32.2674C89.3908 31.5516 89.2794 30.8112 89.0744 30.0462C88.6893 28.6089 88.1663 27.6309 87.5056 27.1123C86.4486 26.2277 85.4101 25.922 84.3901 26.1954C83.996 26.3009 83.5402 26.5473 83.0228 26.9344C82.6842 26.8761 82.367 26.7126 82.0714 26.4439C81.7758 26.1753 81.634 25.8779 81.646 25.5516C82.0612 24.9683 82.4997 24.5651 82.9617 24.3419ZM89.4468 35.0524C89.2116 34.9166 88.9434 34.8891 88.642 34.9699C88.0624 35.1252 87.433 35.6044 86.7538 36.4076C86.5315 36.6907 86.3309 37.0551 86.1521 37.5005C85.9903 37.9166 85.887 38.1803 85.8423 38.2917C85.7099 38.7247 85.5959 39.041 85.5003 39.2405L85.5189 39.3101C85.5624 39.4723 85.5301 39.6301 85.4221 39.7833C85.3372 39.9302 85.2809 40.0447 85.2532 40.1267C85.1286 40.6818 85.0767 41.2299 85.0975 41.771C85.112 42.2889 85.1472 42.6521 85.2031 42.8608C85.3149 43.2781 85.4785 43.6566 85.6938 43.9965C85.9323 44.3301 86.183 44.5239 86.4458 44.5776C86.8077 44.6298 87.2957 44.2257 87.91 43.3654C88.5412 42.4757 89.0209 41.5769 89.3491 40.669C89.4323 40.4231 89.547 39.97 89.693 39.3097C89.8329 38.6262 89.932 38.1152 89.9904 37.7765C90.059 37.0127 90.0188 36.3526 89.8697 35.7963C89.7641 35.4022 89.6231 35.1542 89.4468 35.0524ZM104.494 42.3132C103.795 41.9291 103.166 41.2527 102.609 40.2841C102.525 40.1574 102.437 39.9202 102.344 39.5725C102.25 39.2247 102.185 38.9813 102.148 38.8422C102.102 39.2272 101.931 39.6085 101.634 39.9861C101.244 40.6622 100.816 41.1991 100.352 41.597C99.6831 42.3476 99.0939 42.7912 98.5838 42.9279C98.1202 43.0521 97.6114 42.9151 97.0575 42.5169C96.6878 42.3427 96.3876 42.1498 96.157 41.9383C95.9496 41.7205 95.7962 41.4262 95.6968 41.0553C95.6285 40.8003 95.5887 40.5128 95.5775 40.1928C95.394 39.3226 95.2894 38.4686 95.2637 37.6307C95.2612 36.7866 95.3734 35.6757 95.6006 34.2979C95.9511 32.6387 96.2234 31.5222 96.4175 30.9484C96.521 30.871 96.6655 30.8074 96.8509 30.7577C97.0828 30.6956 97.2868 30.7154 97.4632 30.8173C97.6628 30.9129 97.8052 31.0735 97.8905 31.2991C97.9849 31.3732 98.0538 31.4914 98.0973 31.6537C98.2526 32.2332 98.1595 33.2769 97.8181 34.7846C97.4979 37.206 97.4496 38.834 97.6732 39.6685C97.8037 40.1553 98.0204 40.4078 98.3234 40.426C98.458 40.4645 98.5948 40.4651 98.7339 40.4279C99.3135 40.2726 99.9033 39.6921 100.504 38.6865C101.104 37.6809 101.542 36.2094 101.818 34.272C101.931 33.3968 101.911 32.5326 101.757 31.6794C101.715 31.6161 101.675 31.5149 101.638 31.3758C101.526 30.9585 101.645 30.5665 101.994 30.1996C102.049 30.0357 102.149 29.8972 102.292 29.7842C102.43 29.648 102.534 29.62 102.605 29.7003L103.152 29.5165C103.216 29.4747 103.304 29.5256 103.417 29.6692C103.524 29.7897 103.618 29.8638 103.7 29.8915C103.9 29.9871 104.049 30.2204 104.149 30.5913C104.353 31.3563 104.331 32.6171 104.081 34.3736C103.889 35.4189 103.78 36.2183 103.755 36.7718C103.746 37.2959 103.792 37.7929 103.893 38.2627C104.129 39.1437 104.661 39.7838 105.489 40.1832C105.764 40.2834 105.95 40.42 106.046 40.593C106.142 40.7661 106.222 41.018 106.286 41.3487C106.295 41.5698 106.203 41.7809 106.008 41.9821C105.83 42.154 105.614 42.274 105.359 42.3424C105.058 42.4231 104.769 42.4134 104.494 42.3132ZM115.918 26.0959C116.136 25.8884 116.372 25.7506 116.627 25.6822C116.952 25.5953 117.258 25.6251 117.546 25.7716C117.851 25.8887 118.043 26.098 118.124 26.3993C118.136 26.4457 118.144 26.5678 118.148 26.7657C118.136 26.4457 118.027 27.0093 117.818 28.4566C117.609 29.9039 117.494 30.6801 117.473 30.7853L117.501 30.8896C117.825 30.8026 118.062 30.851 118.211 31.0348C118.376 31.1892 118.491 31.4318 118.555 31.7626C118.359 31.8649 118.183 31.9988 118.029 32.1644C117.874 32.33 117.739 32.4283 117.623 32.4594C117.554 32.478 117.482 32.5345 117.408 32.6289C117.334 32.7233 117.298 32.82 117.299 32.9189C117.278 33.0241 117.293 33.4051 117.345 34.0621L117.39 36.7335C117.387 36.9082 117.343 37.0691 117.258 37.216C117.173 37.363 117.087 37.4605 117.001 37.5085C116.902 37.5102 116.701 37.5019 116.398 37.4837C116.112 37.4362 115.916 37.4016 115.811 37.3801C115.7 37.3354 115.588 37.2907 115.477 37.246L115.421 37.0373C115.334 36.7128 115.302 36.3611 115.325 35.9823C115.361 35.3763 115.339 34.55 115.257 33.5034C115.053 33.4836 114.599 33.6426 113.894 33.9805C113.183 34.2951 112.793 34.4618 112.724 34.4804C112.603 34.5873 112.334 34.6966 111.917 34.8084C111.245 34.9885 110.754 35.0579 110.445 35.0165L110.264 35.1768C110.273 35.3978 110.266 35.6483 110.242 35.9281C110.179 36.7151 110.195 37.2825 110.288 37.6302C110.328 37.9672 110.353 38.2462 110.363 38.4672C110.379 38.7115 110.425 39.0716 110.503 39.5477C110.654 40.203 110.521 40.5866 110.104 40.6984C109.849 40.7667 109.546 40.7485 109.194 40.6438C109.007 40.5946 108.737 40.4681 108.385 40.2645L108.224 37.4379C108.237 37.2106 108.229 36.9022 108.199 36.5126C108.193 36.1169 108.205 35.7906 108.235 35.534L108.329 34.3535C108.39 33.4676 108.468 32.7386 108.563 32.1665C108.563 32.1665 108.623 31.4174 108.743 29.9192C108.769 29.7382 108.802 29.2574 108.841 28.4766C108.898 27.6665 108.933 27.1972 108.949 27.0689C108.973 26.7891 109.124 26.6119 109.403 26.5373C109.767 26.4147 110.105 26.4236 110.416 26.5639C110.744 26.6748 110.957 26.8663 111.054 27.1383C111.073 27.2078 111.092 27.3268 111.113 27.4953C111.127 27.6406 111.132 27.7512 111.127 27.8269L110.502 32.7276L110.577 33.0058C110.688 33.0505 110.86 33.0418 111.091 32.9797C111.277 32.93 111.546 32.8207 111.898 32.6518C112.274 32.4766 112.508 32.3766 112.6 32.3518C112.803 32.2727 113.11 32.1656 113.521 32.0307C113.932 31.8957 114.346 31.7723 114.763 31.6605C115.088 31.5735 115.265 31.5385 115.294 31.5555L115.378 30.3402C115.445 29.1049 115.594 28.0836 115.825 27.2763C115.829 27.2006 115.841 27.0607 115.861 26.8566C115.875 26.6293 115.894 26.3757 115.918 26.0959ZM127.861 28.5608C128.181 28.5496 128.498 28.5268 128.812 28.4925C129.143 28.4287 129.369 28.3928 129.491 28.385C129.788 28.38 130.092 28.4476 130.403 28.5879C130.714 28.7283 130.925 28.8208 131.036 28.8655L131.073 29.0046C131.111 29.1436 131.105 29.3068 131.055 29.4939C130.926 30.1248 130.818 30.6011 130.73 30.9227C130.67 31.1624 130.602 31.4663 130.527 31.8343C130.446 32.1792 130.368 32.5851 130.294 33.0521C130.262 33.2098 130.256 33.5097 130.275 33.9519C130.249 34.5054 130.234 34.82 130.229 34.8957C130.043 35.2191 129.915 35.3901 129.845 35.4087C129.822 35.4149 129.772 35.4157 129.697 35.4112C129.615 35.3835 129.504 35.3882 129.365 35.4255C129.022 35.4429 128.755 35.3281 128.565 35.0809C128.517 34.9944 128.428 34.894 128.298 34.7798C128.184 34.6361 128.112 34.5064 128.081 34.3905C128.013 34.1354 128.045 33.7914 128.178 33.3584C128.231 33.0955 128.289 32.7074 128.35 32.1941C128.374 31.9142 128.434 31.4882 128.529 30.9161C128.563 30.8573 128.583 30.79 128.587 30.7143C128.592 30.6385 128.585 30.5659 128.566 30.4963L128.323 30.5616L127.233 30.6672C127.176 30.7322 127.073 30.8591 126.925 31.0479C126.77 31.2135 126.681 31.4362 126.657 31.7161C126.589 31.8336 126.443 32.1708 126.22 32.7277C126.087 33.1607 125.902 33.583 125.665 33.9945C125.117 35.0108 124.664 35.7782 124.306 36.2965C123.895 36.8041 123.47 37.1169 123.029 37.2349C122.496 37.3778 122.062 37.3327 121.726 37.0997C121.43 36.831 121.16 36.5183 120.916 36.1614C120.918 35.9867 120.959 35.8143 121.038 35.6442C121.11 35.4508 121.228 35.3324 121.39 35.2889C121.483 35.2641 121.596 35.2709 121.731 35.3094C121.777 35.297 121.83 35.3077 121.889 35.3417C121.947 35.3756 122.018 35.4065 122.1 35.4342C122.772 34.8815 123.288 34.2586 123.649 33.5656C124.033 32.8663 124.416 31.9313 124.798 30.7606C124.373 30.7503 123.929 30.6704 123.467 30.521C123.027 30.3654 122.689 30.1702 122.453 29.9355C122.151 29.6437 121.885 29.2552 121.656 28.77C121.426 28.2849 121.291 28.0106 121.249 27.9473C121.286 27.7138 121.31 27.2476 121.322 26.5488C121.315 26.1531 121.332 25.8006 121.374 25.4913C121.415 25.1821 121.525 24.8047 121.704 24.3593C121.927 23.8025 122.299 23.2432 122.82 22.6813C123.334 22.0963 123.718 21.7697 123.973 21.7014C124.177 21.7212 124.421 21.656 124.703 21.5057C125.003 21.326 125.229 21.2407 125.38 21.2498C125.479 21.2481 125.563 21.238 125.633 21.2193C125.696 21.1775 125.766 21.1589 125.842 21.1634C126.574 21.1162 127.169 21.1557 127.625 21.2819C128.075 21.3849 128.426 21.6759 128.679 22.1549C128.676 22.3296 128.684 22.638 128.703 23.0801C128.716 23.4991 128.708 23.8863 128.679 24.2419C128.65 24.5976 128.592 24.9362 128.504 25.2579L128.32 26.239C128.126 27.1854 127.931 27.896 127.736 28.3708L127.861 28.5608ZM125.519 22.7407C123.917 23.7166 123.096 25.1043 123.057 26.9039C123.068 27.2239 123.111 27.523 123.185 27.8012C123.309 28.2648 123.519 28.631 123.815 28.8996C124.104 29.1451 124.434 29.2181 124.805 29.1187C124.968 29.0752 125.121 28.997 125.264 28.884C125.46 28.7817 125.74 28.2472 126.102 27.2806C126.464 26.3139 126.652 25.7169 126.665 25.4896C126.702 25.2562 126.753 24.7954 126.817 24.1074C126.881 23.4193 126.927 22.8975 126.956 22.5419C126.599 22.414 126.305 22.3811 126.073 22.4432C126.003 22.4619 125.819 22.561 125.519 22.7407ZM143.305 31.9138C143.168 32.05 142.938 32.0743 142.617 31.9866C142.318 31.8926 141.998 31.7175 141.656 31.4613C141.39 31.2096 141.19 30.9277 141.057 30.6156C140.946 30.2973 140.755 29.6281 140.481 28.6081C140.419 28.3762 140.342 28.2727 140.249 28.2976C140.18 28.3162 140.048 28.4756 139.856 28.7758C139.656 29.0527 139.421 29.4264 139.15 29.8967C138.702 30.6377 138.267 31.2389 137.844 31.7001C137.421 32.1613 137.044 32.4238 136.713 32.4876C136.458 32.5559 136.133 32.4566 135.739 32.1896C135.367 31.9164 135.039 31.5697 134.752 31.1495C134.608 30.89 134.486 30.5748 134.387 30.2038C134.126 29.2302 134.006 27.9951 134.028 26.4986C134.072 24.9958 134.227 23.6746 134.494 22.5349C134.777 21.3658 135.127 20.7253 135.544 20.6135C135.892 20.5204 136.319 20.8159 136.825 21.5002C136.932 21.6206 136.998 21.7272 137.023 21.8199C137.066 21.9822 137.017 22.1693 136.875 22.3813C136.645 22.9149 136.451 23.8118 136.291 25.072C136.132 26.3322 136.044 27.4863 136.027 28.5345C136.033 29.5765 136.117 30.0758 136.279 30.0323C136.603 29.9453 136.952 29.7153 137.324 29.3423C137.696 28.9693 138.046 28.5151 138.375 27.9798C138.698 27.4213 138.967 26.8521 139.185 26.2721C139.396 25.6689 139.641 24.8701 139.922 23.8757C140.479 22.0616 140.77 21.0146 140.794 20.7348C140.968 19.9925 141.1 19.51 141.189 19.2873C141.296 19.0352 141.455 18.8433 141.669 18.7116L142.155 18.5812C142.301 18.5671 142.491 18.6279 142.726 18.7637C142.907 18.7897 143.021 18.846 143.069 18.9326C143.134 18.9897 143.186 19.0878 143.223 19.2269L143.011 20.6626L142.894 21.4767C142.896 21.5756 142.84 21.8764 142.726 22.3789C142.509 23.7041 142.358 24.7633 142.273 25.5565C142.187 26.3497 142.177 27.1474 142.243 27.9497C142.251 28.0718 142.292 28.272 142.367 28.5501C142.553 29.2456 142.753 29.7138 142.967 29.9547C143.287 30.3161 143.577 30.5616 143.835 30.6911C143.976 30.7528 144.058 30.83 144.083 30.9227C144.127 31.085 144.031 31.2845 143.796 31.5213C143.585 31.7519 143.421 31.8828 143.305 31.9138ZM138.811 16.5329C137.536 16.8745 136.386 16.1516 135.36 14.3641C135.264 14.1911 135.207 14.0698 135.188 14.0003C135.145 13.838 135.145 13.6517 135.188 13.4414C135.209 13.3362 135.283 13.2419 135.41 13.1582C135.537 13.0746 135.649 13.0319 135.748 13.0303C136.098 13.036 136.367 13.113 136.556 13.2612C136.761 13.38 136.925 13.5723 137.046 13.838C137.159 13.9817 137.237 14.1346 137.28 14.2969C137.621 14.8268 137.954 15.0482 138.278 14.9613C138.348 14.9426 138.509 14.8497 138.763 14.6824C139.631 14.0274 140.243 13.3913 140.599 12.774C140.599 12.774 140.965 12.1915 141.696 11.0265L141.722 10.9824C141.802 10.9112 141.877 10.8663 141.947 10.8477C142.109 10.8042 142.234 10.8079 142.322 10.8588C142.476 10.9668 142.579 11.0757 142.633 11.1854C142.688 11.2951 142.73 11.4079 142.761 11.5238C142.792 11.6397 142.817 11.7325 142.836 11.802L142.82 11.8809C142.903 12.0075 142.862 12.3168 142.696 12.8086C142.523 13.2772 142.297 13.6857 142.018 14.0338C141.67 14.4996 141.055 15.1241 140.172 15.9075C140.034 16.0437 139.867 16.1629 139.671 16.2652C139.469 16.3443 139.182 16.4335 138.811 16.5329ZM153.544 28.835C153.232 28.9683 152.995 29.0567 152.832 29.1002C151.975 29.33 151.196 29.2529 150.497 28.8688C149.798 28.4847 149.321 27.8174 149.066 26.8669C148.7 25.8717 148.582 24.5493 148.711 22.8996C148.864 21.2436 149.221 19.7939 149.782 18.5502C150.181 17.7226 150.534 17.0443 150.839 16.5152C151.145 15.9861 151.453 15.6055 151.763 15.3732C152.194 15.0341 152.711 14.7838 153.314 14.6223C153.756 14.6032 154.208 14.6684 154.67 14.8178C155.156 14.961 155.433 15.1601 155.501 15.4151L155.722 15.5424C155.861 15.5051 156.035 15.6448 156.244 15.9615C156.447 16.255 156.601 16.5988 156.707 16.9929C156.794 17.3174 156.81 17.6111 156.756 17.874C156.782 18.3393 156.722 18.7653 156.577 19.152C156.455 19.5324 156.29 19.7506 156.082 19.8065C155.827 19.8748 155.718 19.9786 155.755 20.1176C155.78 20.2104 155.746 20.2692 155.653 20.294C155.537 20.3251 155.38 20.2928 155.18 20.1972C154.981 20.1016 154.821 19.9704 154.702 19.8035C154.683 19.734 154.677 19.5245 154.683 19.1751C154.688 18.8257 154.685 18.4415 154.672 18.0226C154.667 17.7258 154.636 17.473 154.581 17.2644C154.456 16.8008 154.22 16.6155 153.873 16.7087C153.687 16.7584 153.514 16.8545 153.354 16.9969C152.563 17.7554 151.957 18.7872 151.537 20.0926C151.116 21.3979 150.924 23.0894 150.959 25.1671C150.979 25.7082 151.03 26.1294 151.111 26.4308C151.173 26.6626 151.234 26.845 151.295 26.9779C151.378 27.1045 151.446 27.1732 151.499 27.184C151.627 27.1993 151.877 27.1573 152.248 27.0579C153.106 26.828 153.68 26.5622 153.972 26.2604C154.608 25.6675 155.289 24.9138 156.012 23.9993C156.087 23.9049 156.195 23.7517 156.337 23.5397C156.472 23.3046 156.612 23.1305 156.756 23.0175C156.85 22.719 156.96 22.5279 157.087 22.4443C157.207 22.3375 157.418 22.2437 157.719 22.1629C158.046 22.1749 158.323 22.2372 158.552 22.3498C158.775 22.4392 158.806 22.5551 158.645 22.6975C158.576 22.7162 158.536 22.7518 158.525 22.8043C158.514 22.8569 158.512 22.8948 158.518 22.918C158.595 23.0215 158.488 23.3609 158.195 23.9364C157.901 24.5118 157.556 25.0765 157.158 25.6305C156.753 26.1612 156.458 26.4514 156.273 26.5011C156.18 26.526 156.102 26.5593 156.039 26.6011C155.975 26.643 155.956 26.7102 155.981 26.803C156.006 26.8957 155.706 27.2122 155.08 27.7525C154.472 28.2634 153.96 28.6242 153.544 28.835ZM167.558 17.924C167.878 17.9128 168.195 17.89 168.509 17.8556C168.84 17.7918 169.066 17.756 169.188 17.7481C169.485 17.7431 169.789 17.8108 170.1 17.9511C170.411 18.0914 170.622 18.1839 170.733 18.2286L170.771 18.3677C170.808 18.5068 170.802 18.6699 170.753 18.857C170.624 19.4879 170.515 19.9642 170.427 20.2859C170.367 20.5256 170.3 20.8295 170.224 21.1975C170.143 21.5423 170.065 21.9483 169.992 22.4152C169.959 22.573 169.953 22.8729 169.972 23.315C169.946 23.8685 169.931 24.1831 169.927 24.2589C169.74 24.5822 169.612 24.7532 169.542 24.7718C169.519 24.778 169.47 24.7789 169.394 24.7743C169.312 24.7466 169.201 24.7514 169.062 24.7886C168.719 24.8061 168.452 24.6912 168.262 24.4441C168.214 24.3576 168.125 24.2572 167.995 24.1429C167.882 23.9993 167.81 23.8695 167.779 23.7536C167.71 23.4986 167.742 23.1546 167.875 22.7215C167.929 22.4587 167.986 22.0706 168.047 21.5572C168.072 21.2774 168.132 20.8514 168.227 20.2793C168.261 20.2205 168.28 20.1532 168.284 20.0774C168.289 20.0017 168.282 19.929 168.263 19.8595L168.02 19.9247L166.93 20.0304C166.873 20.0954 166.77 20.2222 166.622 20.411C166.468 20.5766 166.378 20.7994 166.354 21.0792C166.286 21.1968 166.14 21.534 165.917 22.0908C165.784 22.5238 165.599 22.9461 165.362 23.3576C164.814 24.374 164.361 25.1413 164.003 25.6597C163.593 26.1672 163.167 26.48 162.727 26.5981C162.194 26.7409 161.759 26.6958 161.423 26.4628C161.128 26.1942 160.858 25.8814 160.613 25.5246C160.616 25.3499 160.657 25.1775 160.735 25.0073C160.808 24.814 160.925 24.6956 161.087 24.6521C161.18 24.6272 161.294 24.6341 161.428 24.6726C161.475 24.6601 161.527 24.6709 161.586 24.7048C161.645 24.7388 161.715 24.7696 161.797 24.7973C162.469 24.2446 162.985 23.6217 163.346 22.9287C163.73 22.2295 164.113 21.2945 164.495 20.1237C164.07 20.1134 163.626 20.0335 163.164 19.8841C162.725 19.7285 162.387 19.5334 162.15 19.2986C161.848 19.0068 161.582 18.6183 161.353 18.1332C161.124 17.648 160.988 17.3737 160.946 17.3104C160.983 17.0769 161.007 16.6108 161.019 15.912C161.012 15.5162 161.029 15.1637 161.071 14.8545C161.112 14.5452 161.222 14.1679 161.401 13.7224C161.625 13.1656 161.997 12.6063 162.517 12.0445C163.031 11.4595 163.416 11.1328 163.671 11.0645C163.875 11.0844 164.118 11.0191 164.401 10.8688C164.7 10.6891 164.926 10.6038 165.078 10.6129C165.177 10.6113 165.261 10.6011 165.33 10.5825C165.394 10.5407 165.463 10.522 165.539 10.5266C166.272 10.4793 166.866 10.5188 167.322 10.645C167.772 10.7481 168.124 11.0391 168.376 11.518C168.373 11.6927 168.381 12.0011 168.401 12.4433C168.413 12.8622 168.405 13.2495 168.376 13.6051C168.347 13.9607 168.289 14.2993 168.201 14.621L168.017 15.6021C167.823 16.5485 167.629 17.2591 167.433 17.734L167.558 17.924ZM165.216 12.1039C163.614 13.0797 162.793 14.4675 162.754 16.267C162.765 16.587 162.808 16.8861 162.882 17.1643C163.007 17.628 163.217 17.9941 163.512 18.2628C163.802 18.5082 164.132 18.5813 164.503 18.4819C164.665 18.4384 164.818 18.3601 164.962 18.2471C165.158 18.1448 165.437 17.6104 165.799 16.6437C166.161 15.677 166.349 15.0801 166.363 14.8528C166.4 14.6193 166.45 14.1585 166.514 13.4705C166.578 12.7825 166.625 12.2606 166.654 11.905C166.296 11.7771 166.002 11.7443 165.77 11.8064C165.701 11.825 165.516 11.9242 165.216 12.1039Z" fill="#5B79F3"/>
<defs>
<clipPath id="clip0_501_1056">
<rect width="57" height="57" fill="white" transform="matrix(0.983373 -0.181595 -0.181595 -0.983373 100.351 110.403)"/>
</clipPath>
</defs>
</svg>
