<svg width="354" height="77" viewBox="0 0 354 77" fill="none" xmlns="http://www.w3.org/2000/svg">
<g clip-path="url(#clip0_417_1712)">
<path fill-rule="evenodd" clip-rule="evenodd" d="M38.162 71.271C32.1674 72.253 26.0179 71.5536 20.3969 69.2506C14.7759 66.9476 9.90349 63.1312 6.32115 58.2255C2.73881 53.3197 0.586811 47.5168 0.104302 41.4615C-0.378207 35.4062 0.827666 29.3357 3.58792 23.9245C6.34818 18.5134 10.5547 13.9736 15.7401 10.8095C20.9254 7.64539 26.8866 5.981 32.961 6.00125C39.0355 6.0215 44.9854 7.7256 50.1495 10.9242C55.3137 14.1228 59.4899 18.6906 62.214 24.12C60.7712 22.1856 59.0823 20.4476 57.19 18.95C52.93 15.568 47.695 13.388 42.117 12.67C36.539 11.952 30.853 12.73 25.744 14.907C20.634 17.084 16.319 20.57 13.316 24.944C10.313 29.318 8.74997 34.394 8.81597 39.564C8.88097 44.734 10.572 49.776 13.684 54.085C16.796 58.394 21.199 61.787 26.362 63.855C28.3767 64.6606 30.4701 65.2538 32.608 65.625C32.881 65.306 33.183 64.984 33.516 64.66C36.696 61.572 37.475 61.121 40.052 59.629L40.182 59.553C41.204 58.961 42.332 58.463 43.452 57.97C45.27 57.168 47.063 56.378 48.33 55.213C48.8671 54.7085 49.3826 54.1813 49.875 53.633C50.97 52.444 51.726 51.623 52.628 52.09C53.898 52.746 53.001 56.559 50.416 58.964C48.348 60.888 44.324 63.654 42.57 64.797C44.811 64.441 49.918 63.25 52.412 61.332C54.907 59.415 57.92 55.004 59.116 53.038C59.2819 50.1343 59.4792 47.2324 59.708 44.333C59.898 41.879 59.995 40.605 60.756 40.522C61.438 40.447 61.649 41.251 61.699 41.812C62.044 45.642 62.687 53.708 61.625 57.008C60.298 61.133 57.572 66.406 52.645 68.669C49.052 70.319 42.695 70.968 38.153 71.219L38.162 71.271ZM58.057 52.49L56.1 55.754C56.142 52.213 56.271 44.938 56.45 44.175C56.629 43.412 57.171 43.301 57.42 43.34C57.398 42.17 57.547 39.77 58.317 39.527C59.087 39.284 59.557 39.723 59.697 39.973L59.581 40.716C59.401 40.89 58.995 41.642 58.805 43.255C58.615 44.868 58.227 50.083 58.057 52.489V52.49Z" fill="url(#paint0_linear_417_1712)"/>
<path d="M40.2709 26.09C37.0259 26.09 34.8369 27.756 33.6989 28.926C32.5619 27.756 30.3729 26.09 27.1279 26.09C22.6539 26.09 19.4419 30.1 19.4419 34.91C19.4419 37.706 20.5769 40.595 22.7229 43.265C25.0689 46.183 28.5989 48.868 33.2139 51.246C33.3639 51.3233 33.5302 51.3637 33.6989 51.3637C33.8676 51.3637 34.0339 51.3233 34.1839 51.246C38.7999 48.868 42.3299 46.183 44.6759 43.266C46.8219 40.596 47.9559 37.706 47.9559 34.91C47.9559 30.104 44.7459 26.09 40.2709 26.09Z" fill="url(#paint1_linear_417_1712)"/>
<path d="M90.025 24.597H93.291C93.851 24.597 94.37 24.555 94.847 24.473C95.345 24.39 95.77 24.244 96.122 24.037C96.496 23.83 96.786 23.56 96.993 23.228C97.2 22.896 97.304 22.482 97.304 21.984C97.304 21.279 97.024 20.75 96.464 20.397C95.904 20.045 95.116 19.869 94.1 19.869C92.96 19.869 91.964 20.003 91.114 20.273C90.264 20.522 89.454 20.864 88.688 21.299L87.132 17.473C87.962 16.955 88.957 16.54 90.118 16.229C91.301 15.897 92.638 15.731 94.131 15.731C95.293 15.731 96.371 15.866 97.366 16.136C98.362 16.385 99.223 16.768 99.948 17.286C100.665 17.7738 101.244 18.4386 101.628 19.216C102.043 19.983 102.25 20.885 102.25 21.922C102.25 22.71 102.033 23.498 101.597 24.286C101.182 25.053 100.539 25.706 99.668 26.246C100.145 26.494 100.591 26.785 101.006 27.116C101.435 27.441 101.813 27.8291 102.126 28.267C102.458 28.703 102.717 29.201 102.904 29.761C103.09 30.3 103.184 30.911 103.184 31.596C103.184 33.898 102.364 35.578 100.726 36.636C99.109 37.672 96.848 38.191 93.945 38.191C93.2162 38.1908 92.4884 38.1387 91.767 38.035C91.0785 37.9344 90.3938 37.81 89.714 37.662C89.0942 37.503 88.4819 37.3162 87.879 37.102C87.368 36.9161 86.8693 36.698 86.386 36.449L87.816 32.654C88.106 32.778 88.459 32.924 88.874 33.089C89.31 33.234 89.787 33.379 90.305 33.525C90.824 33.67 91.363 33.795 91.923 33.898C92.483 34.002 93.043 34.053 93.603 34.053C94.971 34.053 96.07 33.856 96.9 33.463C97.75 33.068 98.175 32.384 98.175 31.409C98.175 30.808 98.04 30.321 97.771 29.947C97.502 29.573 97.128 29.294 96.651 29.107C96.195 28.9 95.645 28.765 95.002 28.703C94.3211 28.6166 93.6353 28.5752 92.949 28.579H90.025V24.597ZM113.024 34.52C113.481 34.52 113.916 34.51 114.331 34.489C114.746 34.469 115.077 34.437 115.326 34.396V30.88C115.048 30.8247 114.768 30.7834 114.486 30.756C114.145 30.7165 113.803 30.6958 113.46 30.694C113.024 30.694 112.61 30.725 112.216 30.787C111.87 30.8205 111.533 30.9153 111.22 31.067C110.93 31.212 110.702 31.409 110.536 31.658C110.37 31.908 110.287 32.218 110.287 32.591C110.287 33.317 110.525 33.825 111.002 34.116C111.5 34.386 112.174 34.52 113.024 34.52ZM112.651 20.957C114.02 20.957 115.16 21.113 116.073 21.424C116.985 21.735 117.711 22.181 118.25 22.762C118.81 23.342 119.204 24.047 119.432 24.877C119.661 25.707 119.775 26.629 119.775 27.645V37.289C118.857 37.4798 117.933 37.6455 117.006 37.786C115.824 37.994 114.393 38.097 112.713 38.097C111.656 38.097 110.691 38.004 109.82 37.817C108.97 37.631 108.234 37.33 107.612 36.915C106.998 36.4884 106.504 35.9095 106.181 35.235C105.849 34.551 105.683 33.711 105.683 32.715C105.683 31.762 105.87 30.953 106.243 30.29C106.622 29.6408 107.157 29.0956 107.798 28.703C108.479 28.2944 109.227 28.01 110.007 27.863C110.836 27.677 111.697 27.583 112.589 27.583C113.19 27.583 113.719 27.614 114.175 27.677C114.652 27.718 115.036 27.78 115.326 27.863V27.428C115.326 26.64 115.088 26.008 114.611 25.53C114.134 25.052 113.304 24.815 112.122 24.815C111.334 24.815 110.557 24.877 109.789 25.001C109.022 25.105 108.358 25.261 107.798 25.468L107.207 21.735C107.477 21.652 107.809 21.569 108.203 21.486C108.617 21.383 109.063 21.3 109.54 21.237C110.035 21.1521 110.533 21.0901 111.033 21.051C111.573 20.989 112.112 20.957 112.651 20.957ZM138.244 17.567C137.477 17.733 136.751 17.847 136.066 17.909C135.382 17.971 134.677 18.064 133.951 18.189C133.329 18.293 132.707 18.448 132.085 18.655C131.463 18.862 130.882 19.153 130.343 19.526C129.807 19.8957 129.343 20.36 128.974 20.896C128.58 21.434 128.3 22.108 128.134 22.917C129.482 22.274 130.789 21.953 132.054 21.953C133.049 21.953 133.972 22.119 134.822 22.45C135.672 22.781 136.409 23.28 137.031 23.944C137.674 24.607 138.171 25.437 138.524 26.432C138.897 27.407 139.084 28.547 139.084 29.854C139.084 31.264 138.876 32.488 138.462 33.524C138.047 34.561 137.477 35.432 136.751 36.138C136.04 36.8258 135.192 37.3557 134.262 37.693C133.292 38.031 132.272 38.1995 131.245 38.191C128.362 38.191 126.299 37.32 125.055 35.578C123.81 33.815 123.188 31.233 123.188 27.832C123.188 25.592 123.406 23.695 123.841 22.139C124.277 20.563 124.93 19.257 125.801 18.219C126.678 17.1567 127.784 16.3062 129.036 15.731C130.322 15.13 131.815 14.653 133.516 14.301C134.194 14.1565 134.879 14.0523 135.569 13.989C136.274 13.906 136.989 13.782 137.715 13.616L138.244 17.567ZM128.041 26.712C127.999 27.002 127.968 27.334 127.948 27.708V28.703C127.948 30.528 128.196 31.907 128.694 32.84C129.213 33.773 130.073 34.24 131.276 34.24C132.292 34.24 133.07 33.846 133.609 33.058C134.148 32.27 134.418 31.212 134.418 29.885C134.418 29.367 134.356 28.869 134.231 28.392C134.12 27.9227 133.919 27.4793 133.64 27.086C133.377 26.7175 133.037 26.4096 132.645 26.183C132.251 25.955 131.784 25.841 131.245 25.841C130.706 25.841 130.135 25.903 129.534 26.028C128.99 26.1356 128.478 26.3699 128.041 26.712ZM157.953 29.543C157.953 30.829 157.766 32.011 157.393 33.089C157.02 34.147 156.481 35.059 155.776 35.827C155.058 36.5816 154.189 37.1753 153.225 37.569C152.25 37.983 151.151 38.191 149.927 38.191C148.725 38.191 147.625 37.983 146.63 37.569C145.678 37.17 144.82 36.5767 144.11 35.827C143.405 35.059 142.856 34.147 142.462 33.089C142.068 32.011 141.871 30.829 141.871 29.543C141.871 28.257 142.068 27.086 142.462 26.028C142.876 24.97 143.436 24.068 144.141 23.322C144.866 22.5763 145.734 21.9839 146.692 21.58C147.688 21.165 148.766 20.957 149.927 20.957C151.109 20.957 152.188 21.165 153.163 21.58C154.158 21.994 155.008 22.575 155.713 23.322C156.418 24.069 156.968 24.97 157.362 26.028C157.756 27.086 157.953 28.258 157.953 29.543ZM153.225 29.543C153.225 28.112 152.934 26.993 152.354 26.183C151.794 25.353 150.985 24.939 149.927 24.939C148.87 24.939 148.051 25.354 147.47 26.183C146.889 26.993 146.599 28.112 146.599 29.543C146.599 30.973 146.889 32.115 147.47 32.965C148.051 33.795 148.87 34.209 149.927 34.209C150.985 34.209 151.794 33.794 152.354 32.965C152.934 32.115 153.225 30.974 153.225 29.543ZM175.075 25.188H169.849V37.755H165.214V25.188H159.988V21.393H175.075V25.188ZM184.139 34.52C184.596 34.52 185.031 34.51 185.446 34.489C185.861 34.469 186.192 34.437 186.441 34.396V30.88C186.163 30.8247 185.883 30.7834 185.601 30.756C185.26 30.7165 184.918 30.6958 184.575 30.694C184.139 30.694 183.725 30.725 183.331 30.787C182.985 30.8207 182.648 30.9155 182.335 31.067C182.045 31.212 181.817 31.409 181.651 31.658C181.485 31.908 181.402 32.218 181.402 32.591C181.402 33.317 181.64 33.825 182.117 34.116C182.615 34.386 183.289 34.52 184.139 34.52ZM183.766 20.957C185.135 20.957 186.275 21.113 187.188 21.424C188.1 21.735 188.826 22.181 189.365 22.762C189.925 23.342 190.319 24.047 190.547 24.877C190.776 25.707 190.89 26.629 190.89 27.645V37.289C189.972 37.4798 189.048 37.6455 188.121 37.786C186.939 37.994 185.508 38.097 183.828 38.097C182.771 38.097 181.806 38.004 180.935 37.817C180.085 37.631 179.349 37.33 178.727 36.915C178.113 36.4884 177.619 35.9095 177.296 35.235C176.964 34.551 176.798 33.711 176.798 32.715C176.798 31.762 176.985 30.953 177.358 30.29C177.738 29.641 178.272 29.0959 178.913 28.703C179.594 28.2944 180.342 28.01 181.122 27.863C181.952 27.677 182.812 27.583 183.704 27.583C184.305 27.583 184.834 27.614 185.29 27.677C185.767 27.718 186.151 27.78 186.441 27.863V27.428C186.441 26.64 186.203 26.008 185.726 25.53C185.249 25.052 184.419 24.815 183.237 24.815C182.449 24.815 181.672 24.877 180.904 25.001C180.137 25.105 179.473 25.261 178.913 25.468L178.322 21.735C178.592 21.652 178.924 21.569 179.318 21.486C179.733 21.383 180.178 21.3 180.655 21.237C181.132 21.154 181.63 21.092 182.149 21.051C182.686 20.9887 183.226 20.9573 183.766 20.957ZM217.859 29.543C217.859 30.829 217.672 32.011 217.299 33.089C216.925 34.147 216.386 35.059 215.681 35.827C214.964 36.582 214.094 37.1758 213.13 37.569C212.156 37.983 211.056 38.191 209.833 38.191C208.63 38.191 207.531 37.983 206.536 37.569C205.584 37.17 204.726 36.5767 204.016 35.827C203.311 35.059 202.761 34.147 202.367 33.089C201.973 32.011 201.776 30.829 201.776 29.543C201.776 28.257 201.973 27.086 202.367 26.028C202.782 24.97 203.342 24.068 204.047 23.322C204.772 22.5761 205.639 21.9837 206.598 21.58C207.593 21.165 208.672 20.957 209.833 20.957C211.015 20.957 212.093 21.165 213.068 21.58C214.064 21.994 214.914 22.575 215.619 23.322C216.324 24.069 216.874 24.97 217.268 26.028C217.662 27.086 217.859 28.258 217.859 29.543ZM213.13 29.543C213.13 28.112 212.84 26.993 212.259 26.183C211.699 25.353 210.891 24.939 209.833 24.939C208.775 24.939 207.956 25.354 207.375 26.183C206.795 26.993 206.504 28.112 206.504 29.543C206.504 30.973 206.795 32.115 207.375 32.965C207.956 33.795 208.775 34.209 209.833 34.209C210.891 34.209 211.699 33.794 212.259 32.965C212.84 32.115 213.13 30.974 213.13 29.543ZM243.2 17.567C242.433 17.733 241.707 17.847 241.023 17.909C240.314 17.974 239.608 18.0674 238.907 18.189C238.285 18.293 237.663 18.448 237.041 18.655C236.419 18.862 235.838 19.153 235.299 19.526C234.763 19.896 234.3 20.3602 233.93 20.896C233.536 21.434 233.256 22.108 233.09 22.917C234.438 22.274 235.745 21.953 237.01 21.953C238.005 21.953 238.928 22.119 239.778 22.45C240.629 22.782 241.365 23.28 241.987 23.944C242.63 24.607 243.128 25.437 243.48 26.432C243.853 27.407 244.04 28.547 244.04 29.854C244.04 31.264 243.833 32.488 243.418 33.524C243.003 34.56 242.433 35.432 241.707 36.138C240.996 36.8256 240.148 37.3555 239.219 37.693C238.249 38.0309 237.228 38.1994 236.201 38.191C233.319 38.191 231.255 37.32 230.011 35.578C228.766 33.815 228.144 31.233 228.144 27.832C228.144 25.592 228.362 23.695 228.798 22.139C229.233 20.563 229.886 19.257 230.757 18.219C231.634 17.1569 232.74 16.3064 233.992 15.731C235.278 15.13 236.771 14.653 238.472 14.301C239.15 14.1566 239.835 14.0524 240.525 13.989C241.246 13.9033 241.963 13.7788 242.671 13.616L243.2 17.567ZM232.997 26.712C232.952 27.0425 232.921 27.3748 232.904 27.708V28.703C232.904 30.528 233.153 31.907 233.65 32.84C234.169 33.773 235.029 34.24 236.232 34.24C237.248 34.24 238.026 33.846 238.565 33.058C239.104 32.27 239.374 31.212 239.374 29.885C239.374 29.367 239.312 28.869 239.187 28.392C239.076 27.9227 238.875 27.4793 238.596 27.086C238.333 26.7175 237.993 26.4096 237.601 26.183C237.207 25.955 236.74 25.841 236.201 25.841C235.662 25.841 235.092 25.903 234.49 26.028C233.946 26.1358 233.434 26.3701 232.997 26.712ZM254.946 25.188C254.923 25.8314 254.892 26.4744 254.853 27.117C254.831 27.7926 254.779 28.467 254.697 29.138C254.615 29.7965 254.501 30.4506 254.355 31.098C254.238 31.7118 254.071 32.3151 253.857 32.902C253.611 33.5604 253.287 34.1872 252.893 34.769C252.494 35.355 252 35.8702 251.431 36.293C250.85 36.749 250.135 37.133 249.284 37.444C248.455 37.734 247.48 37.931 246.36 38.035L245.738 34.178C246.796 33.97 247.615 33.68 248.196 33.307C248.757 32.9351 249.208 32.4195 249.502 31.814C249.73 31.295 249.906 30.694 250.031 30.009C250.176 29.325 250.28 28.609 250.342 27.863C250.404 27.096 250.435 26.318 250.435 25.53C250.455 24.7735 250.466 24.0168 250.466 23.26V21.393H262.754V37.755H258.119V25.188H254.946ZM282.008 21.393V37.755H277.342C277.342 36.718 277.352 35.692 277.373 34.675C277.393 33.639 277.414 32.685 277.435 31.814C277.456 30.943 277.476 30.186 277.497 29.543C277.539 28.879 277.559 28.392 277.559 28.081C276.958 28.931 276.356 29.791 275.755 30.663C275.154 31.535 274.573 32.394 274.013 33.245L272.458 35.64C272.022 36.3388 271.597 37.0438 271.182 37.755H267.107V21.393H271.742C271.742 22.43 271.732 23.425 271.711 24.379C271.711 25.312 271.701 26.163 271.68 26.929C271.659 27.695 271.639 28.371 271.618 28.952C271.597 29.512 271.587 29.947 271.587 30.258C272.71 28.6075 273.85 26.9691 275.008 25.343C275.988 23.991 277.016 22.6735 278.088 21.393H282.008ZM285.589 21.922C286.315 21.652 287.155 21.434 288.109 21.268C289.063 21.102 290.1 21.02 291.22 21.02C292.07 21.02 292.899 21.103 293.708 21.268C294.517 21.414 295.232 21.673 295.855 22.046C296.498 22.399 297.006 22.876 297.379 23.477C297.773 24.057 297.97 24.794 297.97 25.686C297.97 26.494 297.783 27.189 297.41 27.77C297.037 28.33 296.508 28.796 295.824 29.17C296.736 29.564 297.41 30.082 297.846 30.725C298.281 31.368 298.499 32.187 298.499 33.182C298.499 34.116 298.302 34.904 297.908 35.547C297.508 36.1745 296.964 36.697 296.321 37.071C295.658 37.465 294.901 37.745 294.05 37.911C293.2 38.097 292.319 38.191 291.406 38.191C290.845 38.1896 290.285 38.1582 289.727 38.097C289.153 38.0566 288.582 37.9842 288.016 37.88C287.023 37.7278 286.051 37.4562 285.123 37.071L285.963 33.462C286.398 33.628 287.062 33.825 287.953 34.053C288.866 34.282 289.892 34.396 291.033 34.396C292.899 34.396 293.833 33.877 293.833 32.84C293.833 32.488 293.76 32.208 293.615 32C293.471 31.7728 293.266 31.59 293.024 31.472C292.796 31.347 292.526 31.264 292.215 31.222C291.904 31.18 291.593 31.16 291.282 31.16H287.642V27.863H291.313C292.06 27.863 292.578 27.718 292.868 27.428C293.179 27.117 293.335 26.764 293.335 26.37C293.335 25.976 293.159 25.623 292.806 25.312C292.474 24.98 291.852 24.815 290.94 24.815C290.027 24.815 289.167 24.898 288.358 25.063C287.549 25.228 286.896 25.385 286.398 25.53L285.589 21.922ZM306.404 27.117C306.891 26.6501 307.368 26.173 307.835 25.686C308.353 25.167 308.851 24.659 309.328 24.161C309.805 23.643 310.261 23.145 310.696 22.668C311.132 22.191 311.516 21.766 311.847 21.393H317.478C317.063 21.828 316.545 22.367 315.922 23.01C315.321 23.653 314.678 24.327 313.994 25.032C313.304 25.7213 312.61 26.4056 311.91 27.085C311.278 27.7198 310.625 28.3322 309.95 28.921C310.572 29.398 311.236 29.989 311.941 30.694C312.646 31.399 313.33 32.156 313.994 32.964C314.667 33.7589 315.31 34.5789 315.922 35.422C316.545 36.252 317.073 37.029 317.509 37.755H312.221C311.819 37.1572 311.394 36.5761 310.945 36.013C310.47 35.3931 309.972 34.7914 309.452 34.209C308.95 33.6245 308.421 33.0639 307.866 32.529C307.401 32.0597 306.913 31.6135 306.404 31.192V37.755H301.769V21.393H306.404V27.117ZM334.896 21.393V37.755H330.23C330.23 36.718 330.24 35.692 330.261 34.675C330.282 33.639 330.302 32.685 330.323 31.814C330.344 30.943 330.365 30.186 330.385 29.543C330.427 28.879 330.447 28.392 330.447 28.081C329.846 28.931 329.245 29.791 328.643 30.663C328.042 31.533 327.461 32.394 326.901 33.245L325.346 35.64C324.91 36.3385 324.485 37.0436 324.071 37.755H319.995V21.393H324.63C324.63 22.43 324.62 23.425 324.599 24.379C324.599 25.312 324.589 26.163 324.568 26.929C324.548 27.697 324.527 28.371 324.506 28.952C324.485 29.512 324.475 29.947 324.475 30.258C325.598 28.6073 326.738 26.9688 327.897 25.343C328.877 23.9908 329.904 22.6733 330.976 21.393H334.896ZM345.757 26.37L348.992 21.393H353.782L348.183 29.263C349.366 30.7369 350.497 32.2519 351.574 33.805C352.59 35.277 353.399 36.594 354 37.755H349.023C348.857 37.445 348.65 37.06 348.401 36.605C348.14 36.1067 347.86 35.6187 347.561 35.142C347.249 34.6215 346.916 34.1131 346.565 33.618C346.258 33.134 345.926 32.6667 345.57 32.218C345.259 32.612 344.937 33.048 344.606 33.525C344.295 34.002 343.994 34.489 343.704 34.987L342.833 36.417C342.563 36.895 342.324 37.34 342.117 37.755H337.389C337.638 37.237 337.98 36.625 338.415 35.92C338.869 35.186 339.336 34.4599 339.815 33.742C340.336 32.9723 340.875 32.2154 341.433 31.472C341.964 30.7423 342.513 30.0264 343.081 29.325C342.143 28.0118 341.21 26.6951 340.282 25.375C339.349 24.027 338.426 22.699 337.513 21.393H342.521L345.757 26.37Z" fill="#070707"/>
<path d="M96.604 64.974H95.018L92.078 60.152L89.092 64.974H87.614L91.301 59.188L87.848 53.868H89.403L92.125 58.224L94.862 53.869H96.34L92.903 59.157L96.604 64.974ZM109.124 60.79C109.124 62.17 108.771 63.237 108.066 63.994C107.372 64.751 106.428 65.13 105.236 65.13C104.499 65.13 103.841 64.964 103.26 64.632C102.69 64.29 102.239 63.797 101.907 63.154C101.575 62.501 101.409 61.713 101.409 60.79C101.409 59.411 101.757 58.348 102.452 57.602C103.146 56.855 104.09 56.482 105.282 56.482C106.039 56.482 106.703 56.652 107.273 56.995C107.854 57.327 108.305 57.815 108.626 58.457C108.958 59.09 109.124 59.867 109.124 60.79ZM102.825 60.79C102.825 61.775 103.017 62.558 103.4 63.139C103.794 63.709 104.416 63.994 105.267 63.994C106.107 63.994 106.724 63.709 107.118 63.139C107.512 62.558 107.709 61.775 107.709 60.79C107.709 59.805 107.512 59.033 107.118 58.473C106.724 57.913 106.101 57.633 105.251 57.633C104.401 57.633 103.784 57.913 103.4 58.473C103.017 59.033 102.825 59.805 102.825 60.79ZM119.148 56.482C120.174 56.482 120.999 56.839 121.621 57.555C122.253 58.27 122.57 59.349 122.57 60.79C122.57 62.21 122.253 63.289 121.621 64.025C120.999 64.761 120.169 65.129 119.132 65.129C118.489 65.129 117.955 65.01 117.53 64.772C117.15 64.5538 116.817 64.2629 116.55 63.916H116.457C116.478 64.093 116.499 64.316 116.519 64.586C116.54 64.855 116.55 65.088 116.55 65.285V68.707H115.182V56.637H116.301L116.488 57.773H116.55C116.808 57.4013 117.142 57.0885 117.53 56.855C117.935 56.606 118.474 56.482 119.148 56.482ZM118.899 57.632C118.049 57.632 117.447 57.872 117.095 58.348C116.753 58.825 116.571 59.551 116.55 60.526V60.79C116.55 61.817 116.716 62.61 117.048 63.17C117.39 63.72 118.018 63.994 118.93 63.994C119.438 63.994 119.853 63.854 120.174 63.574C120.506 63.294 120.75 62.916 120.905 62.439C121.071 61.951 121.154 61.397 121.154 60.775C121.154 59.821 120.968 59.058 120.594 58.488C120.231 57.918 119.666 57.632 118.899 57.632ZM135.887 60.79C135.887 62.17 135.535 63.237 134.829 63.994C134.135 64.751 133.191 65.13 131.999 65.13C131.262 65.13 130.604 64.964 130.023 64.632C129.453 64.29 129.002 63.797 128.67 63.154C128.338 62.501 128.173 61.713 128.173 60.79C128.173 59.411 128.52 58.348 129.215 57.602C129.909 56.855 130.853 56.482 132.045 56.482C132.802 56.482 133.466 56.652 134.036 56.995C134.617 57.327 135.068 57.815 135.389 58.457C135.721 59.09 135.887 59.867 135.887 60.79ZM129.588 60.79C129.588 61.775 129.78 62.558 130.163 63.139C130.557 63.709 131.18 63.994 132.03 63.994C132.87 63.994 133.487 63.709 133.881 63.139C134.275 62.558 134.472 61.775 134.472 60.79C134.472 59.805 134.275 59.033 133.881 58.473C133.487 57.913 132.865 57.633 132.014 57.633C131.164 57.633 130.547 57.913 130.163 58.473C129.78 59.033 129.588 59.805 129.588 60.79ZM153.252 56.637V64.974H141.945V56.637H143.313V63.823H146.906V56.637H148.275V63.823H151.883V56.637H153.252ZM167.055 60.79C167.055 62.17 166.702 63.237 165.997 63.994C165.303 64.751 164.359 65.13 163.167 65.13C162.43 65.13 161.772 64.964 161.191 64.632C160.621 64.29 160.17 63.797 159.838 63.154C159.506 62.501 159.34 61.713 159.34 60.79C159.34 59.411 159.688 58.348 160.383 57.602C161.077 56.855 162.021 56.482 163.213 56.482C163.97 56.482 164.634 56.652 165.204 56.995C165.785 57.327 166.236 57.815 166.557 58.457C166.889 59.09 167.055 59.867 167.055 60.79ZM160.756 60.79C160.756 61.775 160.948 62.558 161.331 63.139C161.725 63.709 162.347 63.994 163.198 63.994C164.038 63.994 164.655 63.709 165.049 63.139C165.443 62.558 165.64 61.775 165.64 60.79C165.64 59.805 165.443 59.033 165.049 58.473C164.655 57.913 164.032 57.633 163.182 57.633C162.332 57.633 161.715 57.913 161.331 58.473C160.948 59.033 160.756 59.805 160.756 60.79ZM186.644 57.788H183.922V64.974H182.569V57.788H179.878V56.638H186.644V57.788ZM195.332 56.497C196.348 56.497 197.1 56.72 197.588 57.167C198.075 57.612 198.319 58.322 198.319 59.297V64.974H197.323L197.059 63.792H196.996C196.634 64.248 196.25 64.585 195.846 64.802C195.451 65.021 194.902 65.13 194.197 65.13C193.44 65.13 192.813 64.933 192.315 64.539C191.817 64.134 191.568 63.507 191.568 62.657C191.568 61.827 191.895 61.189 192.548 60.743C193.201 60.287 194.207 60.038 195.566 59.997L196.981 59.95V59.453C196.981 58.758 196.831 58.276 196.53 58.006C196.229 57.736 195.804 57.602 195.254 57.602C194.819 57.602 194.404 57.669 194.01 57.804C193.616 57.928 193.248 58.074 192.906 58.239L192.486 57.213C192.896 56.9977 193.329 56.8306 193.777 56.715C194.282 56.5687 194.806 56.4953 195.332 56.497ZM196.965 60.899L195.737 60.946C194.7 60.987 193.979 61.153 193.575 61.443C193.181 61.733 192.984 62.143 192.984 62.672C192.984 63.139 193.124 63.481 193.404 63.699C193.694 63.916 194.062 64.025 194.508 64.025C195.213 64.025 195.799 63.833 196.265 63.45C196.732 63.056 196.965 62.454 196.965 61.646V60.899ZM213.725 56.637V64.974H212.496V59.654C212.496 59.437 212.502 59.209 212.512 58.97L212.574 58.27H212.527L209.806 64.974H208.655L206.011 58.27H205.964C205.995 58.737 206.011 59.214 206.011 59.701V64.974H204.782V56.637H206.602L209.23 63.341L211.905 56.637H213.725ZM219.78 67.085L219.909 65.915C219.985 65.288 220.044 64.759 220.084 64.328C220.125 63.898 220.155 63.521 220.175 63.197H221.671V63.531C221.423 64.533 221.059 65.718 220.578 67.085H219.78ZM240.869 56.637V57.788H237.151V64.974H235.783V56.637H240.869ZM252.119 56.637V63.823H253.332V67.867H252.01V64.974H246.209V67.867H244.902V63.823H245.571C246.301 62.8077 246.844 61.6697 247.173 60.463C247.536 59.198 247.723 57.923 247.733 56.637H252.119ZM250.797 57.711H248.946C248.9 58.4499 248.791 59.1836 248.62 59.904C248.448 60.636 248.219 61.3535 247.935 62.05C247.695 62.6788 247.377 63.2746 246.987 63.823H250.797V57.711ZM262.074 56.482C262.79 56.482 263.402 56.637 263.91 56.948C264.428 57.259 264.822 57.7 265.092 58.27C265.372 58.83 265.512 59.489 265.512 60.246V61.07H259.804C259.824 62.014 260.063 62.734 260.519 63.232C260.986 63.719 261.634 63.963 262.463 63.963C262.992 63.963 263.459 63.916 263.863 63.823C264.278 63.719 264.703 63.574 265.138 63.387V64.585C264.734 64.7651 264.312 64.9009 263.879 64.99C263.464 65.083 262.971 65.13 262.401 65.13C261.613 65.13 260.913 64.969 260.301 64.647C259.697 64.3227 259.204 63.8246 258.886 63.217C258.554 62.573 258.388 61.791 258.388 60.867C258.388 59.955 258.539 59.172 258.839 58.519C259.15 57.866 259.581 57.363 260.13 57.01C260.69 56.658 261.338 56.482 262.074 56.482ZM262.059 57.602C261.406 57.602 260.887 57.814 260.503 58.239C260.13 58.654 259.907 59.235 259.835 59.981H264.081C264.07 59.276 263.904 58.706 263.583 58.271C263.262 57.824 262.754 57.602 262.059 57.602ZM281.492 56.482C282.446 56.482 283.203 56.673 283.763 57.057C284.333 57.43 284.619 57.97 284.619 58.675C284.619 59.183 284.479 59.587 284.199 59.888C283.919 60.178 283.535 60.391 283.048 60.526V60.588C283.379 60.681 283.685 60.811 283.965 60.977C284.245 61.143 284.468 61.36 284.634 61.63C284.81 61.9 284.899 62.247 284.899 62.672C284.899 63.367 284.608 63.952 284.027 64.43C283.457 64.896 282.56 65.13 281.337 65.13C280.789 65.1351 280.241 65.0828 279.704 64.974C279.216 64.881 278.812 64.751 278.49 64.585V63.356C278.843 63.522 279.258 63.673 279.735 63.807C280.252 63.946 280.786 64.0142 281.321 64.01C281.943 64.01 282.467 63.906 282.892 63.699C283.328 63.481 283.545 63.113 283.545 62.594C283.545 61.661 282.752 61.194 281.166 61.194H280.046V60.074H280.948C281.663 60.074 282.234 59.981 282.659 59.794C283.094 59.598 283.312 59.266 283.312 58.799C283.312 58.405 283.146 58.109 282.814 57.913C282.493 57.716 282.026 57.617 281.414 57.617C280.958 57.617 280.554 57.664 280.201 57.757C279.859 57.84 279.481 57.97 279.066 58.146L278.584 57.057C279.455 56.673 280.424 56.482 281.492 56.482ZM293.97 56.497C294.986 56.497 295.738 56.72 296.225 57.167C296.712 57.612 296.956 58.322 296.956 59.297V64.974H295.961L295.696 63.792H295.634C295.271 64.248 294.888 64.585 294.483 64.802C294.089 65.021 293.54 65.13 292.834 65.13C292.078 65.13 291.45 64.933 290.952 64.539C290.455 64.134 290.206 63.507 290.206 62.657C290.206 61.827 290.533 61.189 291.186 60.743C291.839 60.287 292.845 60.038 294.203 59.997L295.619 59.95V59.453C295.619 58.758 295.468 58.276 295.168 58.006C294.867 57.736 294.442 57.602 293.892 57.602C293.457 57.602 293.042 57.669 292.648 57.804C292.254 57.928 291.886 58.074 291.544 58.239L291.124 57.213C291.534 56.9975 291.967 56.8304 292.415 56.715C292.92 56.5687 293.444 56.4952 293.97 56.497ZM295.603 60.899L294.374 60.946C293.337 60.987 292.617 61.153 292.212 61.443C291.818 61.733 291.621 62.143 291.621 62.672C291.621 63.139 291.761 63.481 292.041 63.699C292.332 63.916 292.7 64.025 293.146 64.025C293.851 64.025 294.436 63.833 294.903 63.45C295.37 63.056 295.603 62.454 295.603 61.646V60.899ZM302.984 59.966C302.984 58.141 303.259 56.72 303.808 55.704C304.358 54.678 305.244 54.034 306.468 53.775C307.124 53.6336 307.782 53.5042 308.443 53.387C309.086 53.272 309.688 53.169 310.247 53.075L310.481 54.273C310.118 54.325 309.708 54.393 309.252 54.475C308.796 54.548 308.345 54.625 307.899 54.709C307.453 54.781 307.069 54.854 306.748 54.926C306.096 55.0563 305.522 55.4359 305.146 55.984C304.752 56.534 304.529 57.394 304.477 58.566H304.57C304.716 58.369 304.913 58.166 305.161 57.959C305.421 57.752 305.727 57.576 306.079 57.43C306.471 57.2798 306.888 57.2062 307.308 57.213C308.386 57.213 309.2 57.56 309.75 58.255C310.299 58.95 310.574 59.852 310.574 60.961C310.574 61.884 310.413 62.656 310.092 63.279C309.77 63.901 309.325 64.367 308.754 64.679C308.184 64.979 307.52 65.129 306.763 65.129C305.612 65.129 304.695 64.689 304.01 63.807C303.326 62.927 302.984 61.645 302.984 59.966ZM306.872 63.994C307.546 63.994 308.091 63.776 308.505 63.341C308.92 62.905 309.128 62.159 309.128 61.101C309.128 60.251 308.967 59.582 308.645 59.095C308.334 58.597 307.816 58.348 307.09 58.348C306.634 58.348 306.219 58.452 305.846 58.659C305.5 58.8355 305.185 59.0668 304.913 59.344C304.664 59.603 304.487 59.821 304.384 59.997C304.384 60.505 304.42 60.997 304.493 61.474C304.565 61.951 304.69 62.382 304.866 62.765C305.041 63.1244 305.303 63.4345 305.628 63.667C305.96 63.885 306.375 63.994 306.872 63.994ZM323.867 60.79C323.867 62.17 323.514 63.237 322.809 63.994C322.114 64.751 321.171 65.13 319.978 65.13C319.242 65.13 318.584 64.964 318.003 64.632C317.433 64.29 316.982 63.797 316.65 63.154C316.318 62.501 316.152 61.713 316.152 60.79C316.152 59.411 316.499 58.348 317.194 57.602C317.889 56.855 318.832 56.482 320.025 56.482C320.782 56.482 321.445 56.652 322.016 56.995C322.596 57.327 323.047 57.815 323.369 58.457C323.701 59.09 323.867 59.867 323.867 60.79ZM317.567 60.79C317.567 61.775 317.759 62.558 318.143 63.139C318.537 63.709 319.159 63.994 320.009 63.994C320.849 63.994 321.466 63.709 321.86 63.139C322.254 62.558 322.451 61.775 322.451 60.79C322.451 59.805 322.254 59.033 321.86 58.473C321.466 57.913 320.844 57.633 319.994 57.633C319.144 57.633 318.527 57.913 318.143 58.473C317.759 59.033 317.567 59.805 317.567 60.79ZM335.527 57.788H332.805V64.974H331.452V57.788H328.761V56.638H335.527V57.788ZM344.215 56.497C345.231 56.497 345.983 56.72 346.47 57.167C346.958 57.612 347.202 58.322 347.202 59.297V64.974H346.206L345.942 63.792H345.879C345.517 64.248 345.133 64.585 344.728 64.802C344.334 65.021 343.785 65.13 343.08 65.13C342.323 65.13 341.696 64.933 341.198 64.539C340.7 64.134 340.451 63.507 340.451 62.657C340.451 61.827 340.778 61.189 341.431 60.743C342.084 60.287 343.09 60.038 344.449 59.997L345.864 59.95V59.453C345.864 58.758 345.714 58.276 345.413 58.006C345.112 57.736 344.687 57.602 344.137 57.602C343.702 57.602 343.287 57.669 342.893 57.804C342.499 57.928 342.131 58.074 341.789 58.239L341.369 57.213C341.779 56.9977 342.212 56.8306 342.66 56.715C343.165 56.5687 343.689 56.4953 344.215 56.497ZM345.848 60.899L344.62 60.946C343.583 60.987 342.862 61.153 342.458 61.443C342.064 61.733 341.867 62.143 341.867 62.672C341.867 63.139 342.007 63.481 342.287 63.699C342.577 63.916 342.945 64.025 343.391 64.025C344.096 64.025 344.682 63.833 345.148 63.45C345.615 63.056 345.848 62.454 345.848 61.646V60.899Z" fill="#7D7D7E"/>
</g>
<defs>
<linearGradient id="paint0_linear_417_1712" x1="-3.24499e-05" y1="38.852" x2="62.214" y2="38.852" gradientUnits="userSpaceOnUse">
<stop stop-color="#0FF0B3"/>
<stop offset="1" stop-color="#036ED9"/>
</linearGradient>
<linearGradient id="paint1_linear_417_1712" x1="19.4419" y1="38.727" x2="47.9569" y2="38.727" gradientUnits="userSpaceOnUse">
<stop stop-color="#B24592"/>
<stop offset="1" stop-color="#F15F79"/>
</linearGradient>
<clipPath id="clip0_417_1712">
<rect width="354" height="77" fill="white"/>
</clipPath>
</defs>
</svg>
