<svg width="280" height="73" viewBox="0 0 280 73" fill="none" xmlns="http://www.w3.org/2000/svg">
<mask id="mask0_416_1684" style="mask-type:luminance" maskUnits="userSpaceOnUse" x="0" y="0" width="69" height="73">
<path d="M0 0H68.705V73H0V0Z" fill="white"/>
</mask>
<g mask="url(#mask0_416_1684)">
<path d="M47.9464 36.5C44.6471 40.3654 39.5685 42.6356 33.8727 42.6356H33.9887C28.2966 42.6356 23.2032 40.3781 19.915 36.5" stroke="#252830" stroke-width="3.243" stroke-miterlimit="10"/>
<path d="M3.38576 27.5393V47.4026C3.38625 50.3006 4.54861 53.0797 6.61718 55.1287C8.68575 57.1777 11.4911 58.3288 14.4163 58.3288H18.83V67.8097C18.8305 68.1003 18.9144 68.3847 19.0719 68.6298C19.2294 68.875 19.4539 69.0707 19.7194 69.1943C19.9848 69.3179 20.2802 69.3641 20.5712 69.3277C20.8622 69.2913 21.1368 69.1737 21.3629 68.9887L34.2594 58.3288H54.1173C57.0422 58.3283 59.8471 57.177 61.9153 55.1281C63.9834 53.0791 65.1455 50.3002 65.146 47.4026V27.5393C65.1465 25.7281 64.6918 23.9454 63.8228 22.352C62.9538 20.7586 61.698 19.4047 60.1687 18.4124L40.3108 5.49508C38.5119 4.32308 36.406 3.69855 34.253 3.69855C32.1 3.69855 29.9941 4.32308 28.1952 5.49508L8.33734 18.4143C6.80862 19.4065 5.55331 20.7603 4.68468 22.3533C3.81604 23.9464 3.36142 25.7286 3.36182 27.5393H3.38576Z" stroke="#252830" stroke-width="3.243" stroke-miterlimit="10"/>
</g>
<path d="M109.101 49H95.6205V22.32H108.741C111.114 22.32 112.967 22.9733 114.301 24.28C115.661 25.56 116.341 27.1733 116.341 29.12C116.341 30.72 115.887 32.08 114.981 33.2C114.101 34.2933 113.007 34.9733 111.701 35.24C113.141 35.4533 114.354 36.2 115.341 37.48C116.354 38.7333 116.861 40.1733 116.861 41.8C116.861 43.9333 116.167 45.6667 114.781 47C113.421 48.3333 111.527 49 109.101 49ZM107.781 33.36C108.954 33.36 109.874 33.04 110.541 32.4C111.207 31.76 111.541 30.9333 111.541 29.92C111.541 28.88 111.207 28.04 110.541 27.4C109.874 26.76 108.954 26.44 107.781 26.44H100.301V33.36H107.781ZM107.981 44.88C109.261 44.88 110.261 44.56 110.981 43.92C111.701 43.2533 112.061 42.3333 112.061 41.16C112.061 40.12 111.701 39.2533 110.981 38.56C110.261 37.84 109.261 37.48 107.981 37.48H100.301V44.88H107.981ZM143.078 49H138.878V35.56L133.118 49H131.438L125.638 35.56V49H121.438V29.68H126.918L132.278 42.16L137.558 29.68H143.078V49ZM157.428 49.48C154.495 49.48 152.068 48.5467 150.148 46.68C148.255 44.7867 147.308 42.3333 147.308 39.32C147.308 36.4933 148.228 34.1067 150.068 32.16C151.935 30.1867 154.282 29.2 157.108 29.2C159.962 29.2 162.255 30.1867 163.988 32.16C165.748 34.1333 166.628 36.6533 166.628 39.72V40.72H151.708C151.868 42.24 152.495 43.5067 153.588 44.52C154.682 45.5333 156.108 46.04 157.868 46.04C158.855 46.04 159.842 45.8533 160.828 45.48C161.842 45.1067 162.682 44.5867 163.348 43.92L165.268 46.68C163.322 48.5467 160.708 49.48 157.428 49.48ZM162.548 37.76C162.495 36.4267 162.002 35.24 161.068 34.2C160.162 33.16 158.842 32.64 157.108 32.64C155.455 32.64 154.162 33.16 153.228 34.2C152.295 35.2133 151.775 36.4 151.668 37.76H162.548ZM179.574 49.48C176.641 49.48 174.241 48.5333 172.374 46.64C170.507 44.72 169.574 42.28 169.574 39.32C169.574 36.3867 170.507 33.9733 172.374 32.08C174.241 30.16 176.641 29.2 179.574 29.2C182.801 29.2 185.267 30.3467 186.974 32.64L184.214 35.2C183.147 33.68 181.667 32.92 179.774 32.92C178.014 32.92 176.601 33.52 175.534 34.72C174.467 35.8933 173.934 37.4267 173.934 39.32C173.934 41.2133 174.467 42.76 175.534 43.96C176.601 45.16 178.014 45.76 179.774 45.76C181.614 45.76 183.094 45 184.214 43.48L186.974 46.04C185.267 48.3333 182.801 49.48 179.574 49.48ZM198.377 49H194.177V33.36H188.657V29.68H203.937V33.36H198.377V49ZM216.296 49.48C213.362 49.48 210.936 48.5467 209.016 46.68C207.122 44.7867 206.176 42.3333 206.176 39.32C206.176 36.4933 207.096 34.1067 208.936 32.16C210.802 30.1867 213.149 29.2 215.976 29.2C218.829 29.2 221.122 30.1867 222.856 32.16C224.616 34.1333 225.496 36.6533 225.496 39.72V40.72H210.576C210.736 42.24 211.362 43.5067 212.456 44.52C213.549 45.5333 214.976 46.04 216.736 46.04C217.722 46.04 218.709 45.8533 219.696 45.48C220.709 45.1067 221.549 44.5867 222.216 43.92L224.136 46.68C222.189 48.5467 219.576 49.48 216.296 49.48ZM221.416 37.76C221.362 36.4267 220.869 35.24 219.936 34.2C219.029 33.16 217.709 32.64 215.976 32.64C214.322 32.64 213.029 33.16 212.096 34.2C211.162 35.2133 210.642 36.4 210.536 37.76H221.416ZM233.566 48.64C233.006 49.1733 232.352 49.44 231.606 49.44C230.859 49.44 230.206 49.1733 229.646 48.64C229.086 48.08 228.806 47.4133 228.806 46.64C228.806 45.8667 229.086 45.2133 229.646 44.68C230.206 44.12 230.859 43.84 231.606 43.84C232.352 43.84 233.006 44.12 233.566 44.68C234.126 45.2133 234.406 45.8667 234.406 46.64C234.406 47.4133 234.126 48.08 233.566 48.64ZM249.651 49.48C247.091 49.48 245.024 48.4267 243.451 46.32V56.36H239.251V29.68H243.451V32.32C244.997 30.24 247.064 29.2 249.651 29.2C252.184 29.2 254.237 30.1067 255.811 31.92C257.411 33.7333 258.211 36.2 258.211 39.32C258.211 42.44 257.411 44.92 255.811 46.76C254.237 48.5733 252.184 49.48 249.651 49.48ZM248.411 45.76C250.064 45.76 251.384 45.16 252.371 43.96C253.357 42.76 253.851 41.2133 253.851 39.32C253.851 37.4267 253.357 35.8933 252.371 34.72C251.384 33.52 250.064 32.92 248.411 32.92C247.451 32.92 246.504 33.1733 245.571 33.68C244.637 34.1867 243.931 34.8 243.451 35.52V43.16C243.931 43.88 244.637 44.4933 245.571 45C246.504 45.5067 247.451 45.76 248.411 45.76ZM261.536 56.56L262.176 52.8C262.656 53.0133 263.189 53.12 263.776 53.12C265.136 53.12 266.056 52.56 266.536 51.44L267.496 49.24L259.576 29.68H264.056L269.696 44.16L275.336 29.68H279.856L270.536 52.48C269.389 55.3333 267.176 56.7867 263.896 56.84C263.016 56.84 262.229 56.7467 261.536 56.56Z" fill="#252830"/>
</svg>
